<?xml version="1.0" encoding="utf-8"?>
<!-- Generator: Adobe Illustrator 19.0.0, SVG Export Plug-In . SVG Version: 6.00 Build 0)  -->
<svg version="1.1" id="Слой_1" xmlns="http://www.w3.org/2000/svg" xmlns:xlink="http://www.w3.org/1999/xlink" x="0px" y="0px"
	 viewBox="0 0 910.2 910.2" style="enable-background:new 0 0 910.2 910.2;" xml:space="preserve">
<style type="text/css">
	.st0{fill:#FFFFFF;}
</style>
<g>
	<path class="st0" d="M910.1,455.6c0,150,0,300,0.1,450c0,3.7-0.8,4.6-4.6,4.6c-300.3-0.1-600.7-0.1-901,0c-3.7,0-4.6-0.8-4.6-4.6
		c0.1-300.3,0.1-600.7,0-901C0,0.8,0.8,0,4.6,0c300.3,0.1,600.7,0.1,901,0c3.7,0,4.6,0.8,4.6,4.6
		C910.1,154.9,910.1,305.3,910.1,455.6z M12,454.6c0,144.8,0,289.7,0,434.5c0,9,0.1,9.1,8.8,9.1c289.7,0,579.3,0,869,0
		c8.2,0,8.5-0.3,8.5-8.4c0-289.8,0-579.6,0-869.5c0-8.1-0.3-8.4-8.5-8.4c-0.7,0-1.3,0-2,0c-288.5,0-577,0-865.5,0
		C12,12,12,12,12,22.1C12,166.3,12,310.4,12,454.6z"/>
	<path class="st0" d="M192.2,456.1c0-127,0-254,0-381c0-2.2,0-4.3,0.1-6.5c0-2.8,1.5-4.3,4.3-4.4c1.7,0,3.3-0.1,5-0.1
		c218,0,436,0,654,0c1.7,0,3.3,0,5,0.1c2.8,0,4.3,1.5,4.3,4.3c0,1.7,0.1,3.3,0.1,5c0,255,0,510,0,765c0,1.7,0,3.3-0.1,5
		c0,2.8-1.5,4.3-4.3,4.4c-1.7,0-3.3,0.1-5,0.1c-218,0-436,0-654,0c-1.7,0-3.3,0-5-0.1c-2.8,0-4.3-1.5-4.3-4.3c0-2.2-0.1-4.3-0.1-6.5
		C192.2,710.1,192.2,583.1,192.2,456.1z M854.2,456.6c0-124.3,0-248.7,0-373c0-8.3-0.3-8.6-8.2-8.6c-211.7,0-423.3,0-635,0
		c-7.6,0-8,0.4-8,7.9c0,248.8,0,497.6,0,746.5c0,7.5,0.5,7.9,8,7.9c0.8,0,1.7,0,2.5,0c210.2,0,420.3,0,630.5,0
		c10.3,0,10.3,0,10.3-10.1C854.2,703.6,854.2,580.1,854.2,456.6z"/>
	<path class="st0" d="M156,119.6c0,16.2,0,32.3,0,48.5c0,6.3-0.6,6.9-6.9,6.9c-32.3,0-64.6,0-97,0c-6.3,0-6.9-0.6-6.9-6.9
		c0-32.3,0-64.6,0-97c0-6.3,0.6-6.9,6.9-6.9c32.3,0,64.6,0,97,0c6.3,0,6.9,0.6,6.9,6.9C156,87.3,156,103.4,156,119.6z M54,119.6
		c0,13.2,0,26.3,0,39.5c0,6.4,0.7,7.1,6.7,7.1c26.7,0,53.3,0,80,0.1c4.7,0,6.6-1.7,6.6-6.4c-0.1-26.8-0.1-53.6,0-80.5
		c0-4.8-1.9-6.4-6.6-6.4C114,73,87.4,73,60.7,73c-6,0-6.7,0.8-6.7,6.6C53.9,92.9,54,106.3,54,119.6z"/>
	<path class="st0" d="M156,253.6c0,16.2,0,32.3,0,48.5c0,6.3-0.6,6.9-6.9,6.9c-32.3,0-64.6,0-97,0c-6.3,0-6.9-0.6-6.9-6.9
		c0-32.3,0-64.6,0-97c0-6.3,0.6-6.9,6.9-6.9c32.3,0,64.6,0,97,0c6.3,0,6.9,0.6,6.9,6.9C156,221.3,156,237.4,156,253.6z M147.2,253.7
		c0-13.5-0.1-27,0-40.5c0-4.4-1.7-6.3-6.2-6.3c-27,0.1-54,0.1-81,0c-4.5,0-6.2,1.9-6.2,6.3c0.1,26.8,0.1,53.6,0,80.5
		c0,4.7,1.7,6.6,6.4,6.6c26.8-0.1,53.6-0.1,80.5,0c4.8,0,6.5-1.9,6.4-6.6C147.1,280.4,147.2,267,147.2,253.7z"/>
	<path class="st0" d="M156,388.6c0,16.2,0,32.3,0,48.5c0,6.3-0.6,6.9-6.9,6.9c-32.3,0-64.6,0-97,0c-6.3,0-6.9-0.6-6.9-6.9
		c0-32.3,0-64.6,0-97c0-6.3,0.6-6.9,6.9-6.9c32.3,0,64.6,0,97,0c6.3,0,6.9,0.6,6.9,6.9C156,356.3,156,372.4,156,388.6z M54,388.1
		c0,13.3,0,26.7,0,40c0,6.4,0.7,7.1,6.8,7.1c26.7,0,53.3,0,80,0.1c4.7,0,6.6-1.7,6.5-6.4c-0.1-26.8-0.1-53.6,0-80.5
		c0-4.8-1.9-6.4-6.6-6.4c-26.7,0.1-53.3,0-80,0.1c-5.9,0-6.7,0.8-6.7,6.6C53.9,361.8,54,374.9,54,388.1z"/>
	<path class="st0" d="M156,523.1c0,16,0,32,0,48c0,6.3-0.6,6.9-6.9,6.9c-32.3,0-64.6,0-97,0c-6.3,0-6.9-0.6-6.9-6.9
		c0-32.3,0-64.6,0-97c0-6.3,0.6-6.9,6.9-6.9c32.3,0,64.6,0,97,0c6.3,0,6.9,0.6,6.9,6.9C156,490.4,156,506.8,156,523.1z M101.1,476
		c-13.5,0-27,0-40.5,0c-5.9,0-6.6,0.8-6.6,6.7c0,26.7,0,53.3-0.1,80c0,4.7,1.7,6.6,6.4,6.6c26.8-0.1,53.6-0.1,80.5,0
		c4.8,0,6.5-1.9,6.4-6.6c-0.1-26.7,0-53.3-0.1-80c0-6-0.8-6.7-6.6-6.7C127.4,475.9,114.3,476,101.1,476z"/>
	<path class="st0" d="M45.2,657.6c0-16.2,0-32.3,0-48.5c0-6.3,0.6-6.9,6.9-6.9c32.3,0,64.6,0,97,0c6.3,0,6.9,0.6,6.9,6.9
		c0,32.3,0,64.6,0,97c0,6.3-0.6,6.9-6.9,6.9c-32.3,0-64.6,0-97,0c-6.3,0-6.9-0.6-6.9-6.9C45.2,689.9,45.2,673.8,45.2,657.6z
		 M147.2,657.6c0-13.3,0-26.7,0-40c0-5.9-0.8-6.6-6.7-6.6c-26.7,0-53.3,0-80-0.1c-4.7,0-6.6,1.6-6.6,6.4c0.1,26.8,0.1,53.6,0,80.5
		c0,4.8,1.9,6.5,6.5,6.4c26.7-0.1,53.3,0,80-0.1c6.1,0,6.7-0.7,6.8-7.1C147.2,683.9,147.2,670.8,147.2,657.6z"/>
	<path class="st0" d="M156,792.7c0,15.8,0,31.7,0,47.5c0,7.4-0.4,7.8-7.5,7.8c-32,0-64,0-96,0c-6.8,0-7.3-0.5-7.3-7.5
		c0-32,0-64,0-96c0-6.7,0.5-7.3,7-7.3c32.3,0,64.6,0,97,0c6.2,0,6.7,0.6,6.8,7C156,760.4,156,776.6,156,792.7z M100.1,839.2
		c13.5,0,27,0,40.5,0c5.9,0,6.6-0.8,6.6-6.7c0-26.7,0-53.3,0.1-80c0-4.7-1.6-6.6-6.4-6.6c-26.8,0.1-53.6,0.1-80.5,0
		c-4.8,0-6.5,1.9-6.4,6.6c0.1,26.7,0,53.3,0.1,80c0,6.1,0.7,6.7,7.1,6.8C74.1,839.2,87.1,839.2,100.1,839.2z"/>
	<path class="st0" d="M83.2,115.1c0-5.7-0.1-11.3,0-17c0-2.2-0.6-5.4,2.9-5.3c3.2,0.1,2.8,3.2,2.9,5.5c0.1,9,0,18,0.1,27
		c0,6.2,0.7,6.8,7,6.9c8.2,0.1,16.3,0,24.5,0c1.5,0,3,0,4.5,0.1c1.7,0.2,3.4,0.7,3.5,2.8c0.1,2.2-1.7,2.6-3.4,2.8
		c-1.5,0.1-3,0.1-4.5,0.1c-10.5,0-21-0.1-31.5,0c-4.3,0.1-6-1.8-5.9-6C83.3,126.4,83.2,120.8,83.2,115.1z"/>
	<path class="st0" d="M105.1,102.2c15.5,0,13.8-1.6,13.9,13.8c0,3,0,6-0.1,9c-0.1,2,0,4.4-2.8,4.5c-2.8,0.1-2.9-2.3-2.9-4.3
		c-0.1-4-0.1-8-0.1-12c0-3.5-1.6-5.2-5.1-5.2c-4.2,0-8.3,0-12.5-0.1c-1.9,0-3.9-0.4-3.9-2.9c0-2.5,2.1-2.7,4-2.8
		C98.8,102.2,101.9,102.2,105.1,102.2z"/>
	<path class="st0" d="M71.5,244.1c0.5-5.9,2.6-10.9,8-14.1c5.4-3.2,11-3.3,16.6-0.3c2.5,1.3,4,3,2.2,6c-0.1,0.1-0.2,0.3-0.2,0.4
		c-0.4,9.3-6.8,15-12.6,21.1c-2,2.1-3.5,2-5.6,0.9C74.3,255.1,72.1,250.2,71.5,244.1z"/>
	<path class="st0" d="M112.2,227.5c8.5,0.1,14.7,5.1,16.8,12.4c1.9,6.8-1,14.1-6.9,17.8c-2.9,1.8-5.2,2.1-7-1.4
		c-0.3-0.6-0.6-1.3-1.2-1.6c-6.9-3.9-8.7-10.6-10.8-17.6c-1.5-5-0.2-6.8,3.8-8.1C109,228.2,111.1,227.8,112.2,227.5z"/>
	<path class="st0" d="M100.4,281.7c-8.3-0.1-15.4-6.7-16.1-14.9c-0.3-3.3,0.6-5.6,4.4-5.8c0.5,0,1.1,0,1.5-0.2
		c7.6-5.3,15-2.1,22.7,0.1c3.3,1,4.2,2.6,4,5.7C116.3,275,108.8,281.9,100.4,281.7z"/>
	<path class="st0" d="M73.2,389.1c0-7.5,0.1-15,0-22.5c-0.1-3.8,1.6-5.5,5.4-5.4c4.8,0.1,9.7,0.1,14.5,0c3.3,0,4.9,1.6,4.9,4.9
		c0,15.3,0,30.6,0,46c0,3.3-1.6,4.9-4.9,4.9c-4.8,0-9.7-0.1-14.5,0c-3.8,0.1-5.4-1.6-5.4-5.4C73.3,404.1,73.2,396.6,73.2,389.1z"/>
	<path class="st0" d="M116.6,361.2c1.7,0,3.3,0,5,0c6.9,0.1,7.4,0.6,7.4,7.4c0,6.8-0.5,7.4-7.4,7.4c-4.2,0-8.3,0-12.5,0
		c-3.3,0-4.9-1.6-4.9-4.9c0-1.5,0-3,0-4.5c-0.2-3.8,1.6-5.5,5.4-5.4C111.9,361.3,114.2,361.2,116.6,361.2
		C116.6,361.2,116.6,361.2,116.6,361.2z"/>
	<path class="st0" d="M116.4,417c-1.5,0-3,0-4.5,0c-7.2,0-7.7-0.6-7.7-7.6c0-6.5,0.6-7.1,7.1-7.2c4.3,0,8.7,0,13,0
		c3.1,0,4.6,1.5,4.6,4.6c0,1.7,0,3.3,0,5c0.1,3.5-1.5,5.2-5.1,5.1C121.4,416.9,118.9,416.9,116.4,417
		C116.4,416.9,116.4,417,116.4,417z"/>
	<path class="st0" d="M116.6,396c-1.8,0-3.6,0-5.5,0c-6.3-0.1-7-0.9-7-7.3c0.1-5.7,0.8-6.5,6.7-6.6c4.1-0.1,8.3,0.1,12.4,0
		c5.3-0.2,5.7,3,5.8,7.1c0,4.3-0.9,7.2-6,6.9C120.9,395.9,118.7,396,116.6,396z"/>
	<path class="st0" d="M101.6,522.2c-7.7-2-14.8-5.3-21.9-8.4c-2.2-0.9-0.6-2.2,0.6-2.7c6.2-2.7,12.5-5.4,18.7-8.1
		c1.9-0.8,3.9-0.5,5.8,0.3c5.8,2.5,11.6,5,17.3,7.6c1.1,0.5,3.8,1.6,1.2,2.9C116.4,517.1,109.3,520.2,101.6,522.2z"/>
	<path class="st0" d="M101.9,533.9c-2.7-1-5.1-1.8-7.4-2.7c-3.4-1.3-6.9-2.5-10.1-4.1c-1.9-0.9-5.9-0.8-5-3.4c0.7-2.3,4.5-3.3,7.4-3
		c1.8,0.2,3.6,0.8,5.2,1.7c6.6,3.5,13,3.5,19.5-0.1c3.8-2.1,7.6-2.2,11.3,0.2c1.2,0.7,2.9,1.7,0.7,2.7
		C116.2,528.2,109,531,101.9,533.9z"/>
	<path class="st0" d="M100.9,544.9c-6.7-2.7-14-5.6-21.2-8.6c-1.7-0.7-0.7-1.9,0.4-2.5c3.2-1.8,6.6-2.9,9.9-0.9
		c7.8,4.5,15.4,4.5,23.1,0c1.6-0.9,3.5-1.4,5.3-0.8c2.1,0.7,5.4,0.8,5.6,3.3c0.2,1.9-3,2.2-4.8,2.9
		C113.4,540.4,107.8,543.2,100.9,544.9z"/>
	<path class="st0" d="M100.9,689.8c-6.2,0.6-11.6,0.5-14.5-5.9c-1-2.2-1.3-4.3,0.2-6.1c4.2-5.2,5-11.9,8.5-17.4
		c0.7-1,0.7-2.5,0.9-3.8c0.6-4.6-0.1-9.2-1-13.6c-1.2-5.6,1.5-10,3.7-14.7c1.1-2.3,2.6-2.5,3.9-0.1c3.6,6.7,5.4,13.2,2.3,21.2
		c-1,2.4-0.7,8.1,1.6,11.8c3.4,5.3,4.5,11.7,8.2,17c2.7,3.8-1.6,10.8-6.8,11.5C105.4,690.1,102.9,689.8,100.9,689.8z"/>
	<path class="st0" d="M121.2,778.9c-0.1,1.9-1.3,2.9-2.4,3.9c-8.9,9-18,17.8-26.8,26.9c-3,3.1-4.9,2-7.4-0.5c-2.5-2.5-2.9-4.3-0.2-7
		c9.2-8.9,18.2-18.1,27.3-27.1c1.3-1.3,2.7-2.9,4.7-1.6C118.6,774.8,120.5,776.4,121.2,778.9z"/>
</g>
</svg>
