<?xml version="1.0" encoding="utf-8"?>
<!-- Generator: Adobe Illustrator 19.0.0, SVG Export Plug-In . SVG Version: 6.00 Build 0)  -->
<svg version="1.1" id="Слой_1" xmlns="http://www.w3.org/2000/svg" xmlns:xlink="http://www.w3.org/1999/xlink" x="0px" y="0px"
	 viewBox="0 0 1000 1000" style="enable-background:new 0 0 1000 1000;" xml:space="preserve">
<style type="text/css">
	.st0{fill:#BBDFEF;}
</style>
<path id="XMLID_5_" class="st0" d="M500,974c-19.7,0-38.4-4.5-52.7-12.7L126.7,776.2C97.1,759.1,74,719,74,684.9V314.6
	c0-34.1,23.1-74.1,52.7-91.2L447.3,38.3c28.5-16.4,76.8-16.4,105.3,0l320.7,185.1c29.5,17.1,52.6,57.1,52.6,91.2v370.3
	c0,34.1-23.1,74.1-52.6,91.2L552.6,961.3C538.4,969.5,519.7,974,500,974z M500,55.1c-14.4,0-28.2,3.2-37.9,8.8L141.4,249
	c-20.2,11.7-37.9,42.3-37.9,65.6v370.3c0,23.3,17.7,54,37.9,65.6l320.7,185.1c19.4,11.2,56.4,11.2,75.8,0l320.7-185.1
	c20.2-11.6,37.9-42.3,37.9-65.6V314.6c0-23.3-17.7-54-37.9-65.7L537.9,63.9C528.2,58.3,514.4,55.1,500,55.1z"/>
<g id="XMLID_8_">
	<g id="XMLID_9_">
		<g id="XMLID_10_">
			<path id="XMLID_22_" class="st0" d="M705.3,253.5l-43.1,32.2l-43.3,101h-34.8l-13.7-29.6h8.9c16.3,0,29.6-13.2,29.6-29.5v-29.8
				h14.8v-44.5h-44.5v44.5h14.8v29.8c0,8.2-6.6,14.7-14.8,14.7h-15.8l-18.9-41l22.7-11.3L493,258.2l-17.5,61.1
				c-0.5-36.4-30.2-65.8-66.7-65.8c-36.8,0-66.7,29.9-66.7,66.7c0,22.2,11.3,43.1,29.6,55.4v11.2h-17.9l-1.2,6.1
				c-3.6,18.7-3.9,37.9-1,57L301.2,540l55.8,12.8v93.4h74.1v66.7H609V609.6c51.9-36.7,81.5-95.7,81.5-158.7l0-27
				c0-10.2-0.9-20.7-2.8-31l-1.1-6.1H672l33.4-79.9L705.3,253.5L705.3,253.5z M594.2,283.2v-14.8H609v14.8H594.2z M567.8,386.8
				h-28.1l-13.5-29.6h27.9L567.8,386.8z M502.6,278.5l29.5,12.6l-7,3.4l22.1,47.8h-27.8l-18.1-39.6l-6.6,3.3L502.6,278.5z
				 M523.4,386.8h-33v-14.7c0-8.2,6.6-15,14.8-15h4.7v0L523.4,386.8z M494.3,322.9l9,19.8c-15.4,1-27.7,13.8-27.7,29.4v14.7H446
				v-11.2c14.8-9.9,24.9-25.4,28.3-42.7L494.3,322.9z M357,320.2c0-28.6,23.3-51.9,51.9-51.9c28.6,0,51.9,23.3,51.9,51.9
				c0,18.4-9.9,35.6-25.9,44.9l-3.7,2.1v19.5h-14.8v-45.7c8.6-3.1,14.8-11.2,14.8-20.9c0-12.3-10-22.2-22.2-22.2s-22.2,10-22.2,22.2
				c0,9.6,6.2,17.8,14.8,20.9v45.7h-14.8v-19.5l-3.7-2.1C367,355.8,357,338.6,357,320.2z M408.9,327.6c-4.1,0-7.4-3.3-7.4-7.4
				c0-4.1,3.3-7.4,7.4-7.4c4.1,0,7.4,3.3,7.4,7.4C416.3,324.3,413,327.6,408.9,327.6z M674.1,401.6c1.1,7.4,1.6,14.9,1.6,22.2
				l0,27.1c0,59.4-29.3,115-78.3,148.7l-3.3,2.2V698H446v-66.7h-74.1v-90.4l-48-11l43.4-77.3l-0.4-2.6c-2.8-16.2-2.9-33.6-0.5-48.4
				h5.6H446L674.1,401.6L674.1,401.6z M655.9,386.8h-20.9l36.9-86.1l16.4,8.2L655.9,386.8z M690.5,293.4l-8.2-4.1l8.2-6.1V293.4z"/>
			<path id="XMLID_21_" class="st0" d="M423.7,446.1c-12.3,0-22.2-7.4-22.2-22.2h-14.8c0,22.2,16.6,37.1,37.1,37.1
				c20.4,0,37.1-14.8,37.1-37.1H446C446,438.7,436,446.1,423.7,446.1z"/>
		</g>
	</g>
</g>
</svg>
