<?xml version="1.0" encoding="utf-8"?>
<!-- Generator: Adobe Illustrator 19.0.0, SVG Export Plug-In . SVG Version: 6.00 Build 0)  -->
<svg version="1.1" id="logo_x5F_Houston_xA0_Image_1_"
	 xmlns="http://www.w3.org/2000/svg" xmlns:xlink="http://www.w3.org/1999/xlink" x="0px" y="0px" viewBox="0 0 1267 301"
	 style="enable-background:new 0 0 1267 301;" xml:space="preserve">
<style type="text/css">
	.st0{fill-rule:evenodd;clip-rule:evenodd;fill:#1BBEEA;}
	.st1{fill-rule:evenodd;clip-rule:evenodd;fill:#77809B;}
</style>
<path class="st0" d="M1.8,214.1C1.9,186,2,157.9,2,129.8c0-14-0.1-27.9-0.1-41.9c1.8-11.1,7.9-19.1,17.6-24.6
	c31.3-18,62.5-36.1,93.7-54.1c1.3-0.7,2.5-1.6,3.8-2.4c13.5-7.6,26.4-6.4,39.6,1.4c31.7,18.7,63.6,36.9,95.5,55.3
	c11.8,6.8,17.8,17.1,17.8,30.8c0,38.2,0,76.3,0,114.5c0,13-5.6,23.2-16.9,29.8c-33.4,19.4-66.8,38.7-100.3,57.9
	c-11.3,6.5-22.9,6.5-34.2,0C85.2,277.2,52,258,18.7,238.7C9.2,233.3,3.4,225.1,1.8,214.1z M193.4,127.2c0-6.6-3.1-11.4-8.8-14.7
	c-13.3-7.6-26.5-15.3-39.8-22.9c-6-3.5-11.9-3.4-17.9,0.1c-13.1,7.6-26.2,15.2-39.4,22.7c-6.1,3.5-9.2,8.7-9.2,15.5
	c-0.2,15.3-0.1,30.7,0,46c0.1,6.6,3,11.9,8.8,15.2c13.4,7.8,26.8,15.5,40.2,23.2c5.7,3.3,11.4,3.4,17.1,0.1
	c13.6-7.8,27.1-15.6,40.6-23.5c5.4-3.2,8.4-7.9,8.4-14.4c0-7.8,0-15.7,0-23.5C193.4,143.2,193.4,135.2,193.4,127.2z M228.8,111.8
	c0.1-9.7-4-16.8-12.6-21.6c-10.9-6.1-21.6-12.4-32.5-18.6c-13-7.5-25.9-15-38.9-22.4c-2.5-1.5-5.2-3.1-4.9,2.3
	c0.3,5.5,0.4,11,0,16.5c-0.5,6.7-0.2,12.4,8.1,13.7c0.2,0,0.3,0.2,0.4,0.2c13.7,7.9,27.4,15.7,41,23.7c8.5,5,12.5,12.6,12.6,22.4
	c0,15-0.1,30,0,45c0.1,10.9-4.6,18.8-13.9,24.1c-12.7,7.3-25.4,14.6-38,22c-9.3,5.5-18.5,5.6-27.9,0.2c-9.2-5.4-18.5-10.5-27.6-16
	c-6.3-3.7-13.2-6.4-18.3-12c-1.8-1.9-3-0.2-4.3,0.6c-6.5,3.8-12.9,7.6-19.3,11.5c-7.1,4.2-7.1,4.6,0.1,8.8
	c23.6,13.7,47.2,27.3,70.9,40.9c7.6,4.4,15.1,4.4,22.7,0c23-13.3,46-26.8,69.2-39.9c9.3-5.3,13.4-12.8,13.2-23.3
	c-0.2-12.7-0.1-25.3-0.1-38C228.8,138.5,228.7,125.1,228.8,111.8z M10,94.5c0,38,0,76,0,113.9c0,10.5,4.6,18.1,13.6,23.3
	c32.6,18.8,65.2,37.5,97.7,56.4c9.7,5.6,18.9,5.8,28.7,0.1c32.6-19,65.4-37.8,98.1-56.7c1.6-0.9,3.1-2,4.6-3.1
	c2.4-1.7,3.2-3.1-0.2-4.8c-5.5-2.8-10.8-5.9-15.9-9.3c-3.6-2.4-6.2-3-9.2,0.8c-1.5,1.9-3.9,3.1-6,4.3
	c-23.2,13.4-46.4,26.7-69.6,40.2c-11.1,6.5-21.9,6.6-33,0.1C95.4,246.3,72.2,233,49,219.6c-10.8-6.2-16.1-15.4-16-27.9
	c0.1-25.7,0-51.3,0-77c0-4.5-0.3-9,1.1-13.4c0.5-1.7,0.3-2.7-1.3-3.6c-7.1-3.9-14.2-7.9-21.2-11.9C9.6,88.8,10,91.7,10,94.5z
	 M122.2,13.8c-32.8,19-65.7,37.9-98.6,56.9c-2.5,1.4-4.7,3-6.8,5c-1.7,1.6-1.5,2.5,0.5,3.6c5,2.7,10,5.3,14.7,8.4
	c4.3,2.8,7.9,4.1,11.6-0.9c1.2-1.6,3.4-2.6,5.3-3.6C72.3,69.8,95.5,56.5,118.7,43c10.9-6.4,21.6-6.5,32.6-0.1
	C173.7,56,196,69.2,218.8,81.7c4.9,2.7,8.1,9.7,14.1,8.3c5.4-1.3,10.1-5.6,15.1-8.6c8.8-5.3,8.9-5.4-0.3-10.6
	c-32.8-19-65.7-38-98.5-56.9c-4.2-2.5-8.7-4.1-13.5-3.9C130.6,9.8,126.3,11.5,122.2,13.8z M41.4,150.6c0,8.5,0,17,0,25.5
	c0,6.3,0.2,12.6,0.3,19c0,4.1,1.4,4.3,4.6,2.2c5.7-3.7,11.6-7.2,17.6-10.4c4.7-2.5,6.8-4.9,6.5-11.2c-1-16.4-0.5-32.9-0.3-49.4
	c0.1-7.5,3-14.4,9.4-18.4c15.9-10,32-19.7,48.9-27.9c2.1-1,3.1-1.9,3-4.3c-0.2-6.8-0.1-13.7-0.1-20.5c0-9.3,0-9.4-8.1-4.8
	C99.7,63.8,76.2,77.4,52.7,91c-7.4,4.3-11.2,10.6-11.1,19.2c0.1,13.5,0,27,0,40.4C41.5,150.6,41.5,150.6,41.4,150.6z M242.3,94.6
	c-4.8,2.5-8.3,5-5.5,11.2c0.6,1.4,0.2,3.3,0.2,5c0,26.8,0,53.6,0,80.4c0,3.3,0.2,6.7-1,9.9c-1,2.5,0.1,3.5,2.1,4.7
	c5.8,3.3,11.5,6.7,17.3,10c4.9,2.9,5.1,2.8,5.8-2.9c0.1-0.5,0.1-1,0.1-1.5c0.6-40.4,0.6-80.9-0.1-121.3c0-1.8-0.2-3.7-1.8-5.5
	C253.7,87.9,248.2,91.5,242.3,94.6z"/>
<path class="st1" d="M1268,219c-7.3,0-14.7-0.3-22,0c-4.3,0.2-6.8-1.1-9.2-4.9c-18-28.6-36.3-57-54.5-85.4c-0.7-1.1-1.5-2.2-2.4-3.5
	c-1.5,1.6-0.8,3.3-0.8,4.7c0,28-0.1,56,0.1,83.9c0,4.2-1.1,5.4-5.3,5.1c-5.6-0.4-11.3-0.3-17,0c-3.2,0.1-4.3-0.8-4.2-4.2
	c0.2-13.7,0.1-27.3,0.1-41c0-28.1,0.1-56.3-0.1-84.4c0-4.5,1.2-5.6,5.6-5.4c7.6,0.4,15.3,0.3,23,0c3.3-0.1,5,1.1,6.7,3.8
	c16.9,27.1,34,54.1,51,81.1c0.4,0.7,0.9,1.4,1.6,2.5c1.1-1.9,0.6-3.7,0.6-5.4c0-25.7,0.1-51.3-0.1-77c0-3.8,0.7-5.3,4.9-5.1
	c7.3,0.3,14.6,0,22,0C1268,129,1268,174,1268,219z M582.4,221.9c39.5-0.1,69.1-30,69.2-70c0.1-40.5-29.6-70.7-69.5-70.7
	c-39.6,0-69.2,30.2-69.1,70.5C513.1,192,542.7,222,582.4,221.9z M1067.9,81.2c-39.6-0.1-69.4,30-69.5,70.2
	c-0.1,40.2,29.6,70.4,69.2,70.5c39.8,0.1,69.5-29.9,69.5-70.1C1137,111.3,1107.6,81.4,1067.9,81.2z M497.3,88.6
	c0-3.4-0.8-4.7-4.4-4.5c-6,0.3-12,0.3-18,0c-3.4-0.2-4.1,1.2-4.1,4.3c0.1,14.8-0.1,29.7,0.2,44.5c0.1,4-0.7,5.5-5.1,5.4
	c-16.3-0.3-32.7-0.2-49,0c-3.8,0-4.8-1-4.7-4.7c0.2-15,0-30,0.2-45c0-3.5-1-4.6-4.5-4.5c-6.2,0.3-12.3,0.2-18.5,0
	c-2.6-0.1-3.4,0.8-3.4,3.4c0.1,42.7,0.1,85.3,0,128c0,3,1.1,3.6,3.8,3.5c6.2-0.2,12.3-0.2,18.5,0c3.4,0.1,4.1-1.1,4.1-4.3
	c-0.1-15.7,0-31.3-0.1-47c0-3.6,0.8-4.8,4.7-4.8c16.5,0.2,33,0.2,49.5,0c3.9-0.1,4.7,1.2,4.6,4.8c-0.2,15.7,0,31.3-0.1,47
	c0,3.2,0.7,4.4,4.1,4.2c6-0.3,12-0.3,18,0c3.6,0.2,4.4-1.1,4.4-4.5c-0.1-20.8-0.1-41.7-0.1-62.5C497.2,130.9,497.1,109.7,497.3,88.6
	z M769.9,88.4c0-3.2-0.7-4.5-4.1-4.3c-6,0.3-12,0.3-18,0c-3.5-0.1-4.6,0.9-4.5,4.5c0.2,15.2,0.1,30.3,0.1,45.5
	c0,13.3,0.2,26.7-0.3,40c-0.5,12.5-9.4,21.2-21.6,22c-15.4,1.1-25.5-5.6-28.1-18.7c-0.7-3.4-0.6-7-0.7-10.4c0-26-0.1-52,0-78
	c0-3.6-0.9-5-4.7-4.8c-6,0.3-12,0.2-18,0c-3.1-0.1-4,0.9-3.9,4c0.1,28.7-0.4,57.3,0.2,86c0.4,19.8,9.4,35.1,28.2,43.5
	c8.8,3.9,18.3,4.9,27.9,4.4c25.6-1.3,43.5-17.2,46.8-42.6c2-15.7,0.2-31.6,0.7-44.4C769.9,117.3,769.8,102.9,769.9,88.4z
	 M870.1,210.6c11.6-9.7,16.9-22.2,14.1-37.3c-3.5-18.7-16.6-28-34-32.3c-8.1-2-16.3-3.1-24.4-5.1c-6.5-1.6-11-5.8-11.7-12.7
	c-0.8-6.8,2.7-11.8,8.4-15.3c13.2-8,30.4-2.1,35.9,12.3c0.8,2.2,1.5,3.4,4.2,2.5c6-2,12-3.9,18.1-5.6c2.2-0.6,2.5-1.5,1.9-3.6
	c-2.1-6.8-5-13-10.1-18.1c-19.6-20.1-57-18.9-75.2,2.6c-8.3,9.8-11.1,21.2-8.6,33.6c3.7,18,16.8,26.3,33.4,30.2
	c8.2,2,16.7,3.2,24.8,5.5c7.7,2.2,11.5,8,11.3,15.1c-0.2,6.9-4.7,12.5-12.3,14.5c-17.1,4.3-35-2.6-38.2-21c-0.4-2.3-1.1-3-3.6-2.2
	c-5.9,1.8-11.8,3.4-17.8,4.7c-3.1,0.7-3.7,2.3-3,4.9c1.8,7.2,4.4,14,9.2,19.7c11.3,13.5,26.4,18.4,42.5,18.8
	C848.4,221.8,860.2,218.9,870.1,210.6z M892.7,84c-4.1-0.1-5.1,1.2-4.9,5c0.3,5.3,0.3,10.7,0,16c-0.2,3.2,0.8,4.3,4.2,4.2
	c10.7-0.2,21.3,0.2,32-0.2c4.9-0.2,6.4,1,6.4,6.2c-0.3,33-0.1,66-0.2,99c0,3.6,0.7,5.1,4.6,4.8c5.5-0.4,11-0.4,16.5,0
	c4.4,0.3,5.9-0.9,5.8-5.6c-0.2-32.8,0-65.7-0.3-98.5c0-5,1.5-6,6.1-5.9c10.8,0.4,21.7,0,32.5,0.2c3.1,0,4.1-0.9,4-4
	c-0.2-5.5-0.3-11,0-16.5c0.2-3.7-0.9-4.8-4.7-4.8c-17,0.2-34,0.1-51,0.1C926.7,84.1,909.7,84.3,892.7,84z M624,146.2
	c-1.7-17.3-9.8-30.2-26.5-36.6c-16.3-6.2-34.6-2.1-45.9,10.3c-10.3,11.3-12.2,25-10.6,39.6c2.5,23.8,25.1,40.6,48.5,36
	c22-4.3,34.6-20.2,34.6-43.9C624,149.8,624.2,148,624,146.2z M1026,156.6c1.7,17.3,9.6,30.2,26.4,36.7c16.2,6.2,34.7,2.2,46-10.1
	c10.3-11.3,12.4-24.9,10.8-39.6c-2.6-24.3-25.5-41.1-49.4-36c-21.5,4.5-33.8,20.3-33.7,43.6C1026,153,1025.8,154.8,1026,156.6z"/>
</svg>
