<?xml version="1.0" encoding="utf-8"?>
<!-- Generator: Adobe Illustrator 19.0.0, SVG Export Plug-In . SVG Version: 6.00 Build 0)  -->
<svg version="1.1" id="Слой_1" xmlns="http://www.w3.org/2000/svg" xmlns:xlink="http://www.w3.org/1999/xlink" x="0px" y="0px"
	 viewBox="0 0 1000 1000" style="enable-background:new 0 0 1000 1000;" xml:space="preserve">
<style type="text/css">
	.st0{fill:#BBDFEF;}
	.st1{display:none;}
	.st2{display:inline;}
</style>
<path id="XMLID_5_" class="st0" d="M508.9,974c-19.7,0-38.4-4.5-52.7-12.7L135.6,776.2c-29.5-17.1-52.7-57.1-52.7-91.2V314.6
	c0-34.1,23.1-74.1,52.7-91.2L456.3,38.3c28.5-16.4,76.8-16.4,105.3,0l320.7,185.1c29.5,17.1,52.6,57.1,52.6,91.2v370.3
	c0,34.1-23.1,74.1-52.6,91.2L561.6,961.3C547.3,969.5,528.6,974,508.9,974z M508.9,55.1c-14.4,0-28.2,3.2-37.9,8.8L150.4,249
	c-20.2,11.7-37.9,42.3-37.9,65.6v370.3c0,23.3,17.7,54,37.9,65.6l320.7,185.1c19.4,11.2,56.4,11.2,75.8,0l320.7-185.1
	c20.2-11.6,37.9-42.3,37.9-65.6V314.6c0-23.3-17.7-54-37.9-65.7L546.8,63.9C537.1,58.3,523.3,55.1,508.9,55.1z"/>
<g id="XMLID_8_" class="st1">
	<g id="XMLID_9_" class="st2">
		<g id="XMLID_10_">
			<path id="XMLID_22_" class="st0" d="M705.3,253.5l-43.1,32.2l-43.3,101h-34.8l-13.7-29.6h8.9c16.3,0,29.6-13.2,29.6-29.5v-29.8
				h14.8v-44.5h-44.5v44.5h14.8v29.8c0,8.2-6.6,14.7-14.8,14.7h-15.8l-18.9-41l22.7-11.3L493,258.2l-17.5,61.1
				c-0.5-36.4-30.2-65.8-66.7-65.8c-36.8,0-66.7,29.9-66.7,66.7c0,22.2,11.3,43.1,29.6,55.4v11.2h-17.9l-1.2,6.1
				c-3.6,18.7-3.9,37.9-1,57L301.2,540l55.8,12.8v93.4h74.1v66.7H609V609.6c51.9-36.7,81.5-95.7,81.5-158.7l0-27
				c0-10.2-0.9-20.7-2.8-31l-1.1-6.1H672l33.4-79.9L705.3,253.5L705.3,253.5z M594.2,283.2v-14.8H609v14.8H594.2z M567.8,386.8
				h-28.1l-13.5-29.6h27.9L567.8,386.8z M502.6,278.5l29.5,12.6l-7,3.4l22.1,47.8h-27.8l-18.1-39.6l-6.6,3.3L502.6,278.5z
				 M523.4,386.8h-33v-14.7c0-8.2,6.6-15,14.8-15h4.7v0L523.4,386.8z M494.3,322.9l9,19.8c-15.4,1-27.7,13.8-27.7,29.4v14.7H446
				v-11.2c14.8-9.9,24.9-25.4,28.3-42.7L494.3,322.9z M357,320.2c0-28.6,23.3-51.9,51.9-51.9c28.6,0,51.9,23.3,51.9,51.9
				c0,18.4-9.9,35.6-25.9,44.9l-3.7,2.1v19.5h-14.8v-45.7c8.6-3.1,14.8-11.2,14.8-20.9c0-12.3-10-22.2-22.2-22.2s-22.2,10-22.2,22.2
				c0,9.6,6.2,17.8,14.8,20.9v45.7h-14.8v-19.5l-3.7-2.1C367,355.8,357,338.6,357,320.2z M408.9,327.6c-4.1,0-7.4-3.3-7.4-7.4
				c0-4.1,3.3-7.4,7.4-7.4c4.1,0,7.4,3.3,7.4,7.4C416.3,324.3,413,327.6,408.9,327.6z M674.1,401.6c1.1,7.4,1.6,14.9,1.6,22.2
				l0,27.1c0,59.4-29.3,115-78.3,148.7l-3.3,2.2V698H446v-66.7h-74.1v-90.4l-48-11l43.4-77.3l-0.4-2.6c-2.8-16.2-2.9-33.6-0.5-48.4
				h5.6H446L674.1,401.6L674.1,401.6z M655.9,386.8h-20.9l36.9-86.1l16.4,8.2L655.9,386.8z M690.5,293.4l-8.2-4.1l8.2-6.1V293.4z"/>
			<path id="XMLID_21_" class="st0" d="M423.7,446.1c-12.3,0-22.2-7.4-22.2-22.2h-14.8c0,22.2,16.6,37.1,37.1,37.1
				c20.4,0,37.1-14.8,37.1-37.1H446C446,438.7,436,446.1,423.7,446.1z"/>
		</g>
	</g>
</g>
<g id="XMLID_16_">
	<g id="XMLID_17_">
		<path id="XMLID_34_" class="st0" d="M430.1,432c-5.7,4.7-9,11.7-9,19v22.2c0,5,4,9,9,9c5,0,9-4,9-9V451c0-2,0.9-3.9,2.4-5.2
			c19.4-15.9,40.3-26.5,44.4-28.4c3.5-1.7,5.9-5.4,5.9-9.3v-31.3c0-3-1.5-5.8-4-7.4c-1.5-1.1-2.5-2.8-2.5-4.7v-32.4
			c0-11.1,9.1-20.2,20.2-20.2h7c11.1,0,20.2,9.1,20.2,20.2v32.4c0,1.9-0.9,3.6-2.5,4.7c-2.5,1.6-4,4.4-4,7.4V408
			c0,4,2.3,7.6,5.8,9.3c4,2,25,12.6,44.4,28.4c1.5,1.3,2.4,3.2,2.4,5.2v22.2c0,5,4,9,9,9c5,0,9-4,9-9V451c0-7.4-3.3-14.4-9-19
			c-17-14-35.2-24.1-43.7-28.5v-22.6c4.2-4.3,6.5-10.1,6.5-16.3v-32.3c0-21-17.1-38.1-38.1-38.1h-7c-21,0-38.1,17.1-38.1,38.1v32.4
			c0,6.2,2.4,12,6.5,16.3v22.5C465.3,407.9,447.1,418,430.1,432z"/>
		<path id="XMLID_20_" class="st0" d="M722,686.7c5,0,9-4,9-9v-22.2c0-7.4-3.3-14.4-9-19c-17-14-35.2-24.1-43.7-28.5v-22.6
			c4.2-4.3,6.5-10.1,6.5-16.3v-32.4c0-21-17.1-38.1-38.1-38.1h-7c-21,0-38.1,17.1-38.1,38.1v32.4c0,6.2,2.4,12,6.5,16.3V608
			c-8.5,4.4-26.6,14.6-43.7,28.5c-5.7,4.7-9,11.6-9,19v22.2c0,5,4,9,9,9c5,0,9-4,9-9v-22.2c0-2,0.9-3.9,2.4-5.2
			c19.4-15.9,40.3-26.5,44.4-28.4c3.5-1.7,5.8-5.4,5.8-9.3v-31.3c0-3-1.5-5.8-4-7.4c-1.5-1.1-2.5-2.8-2.5-4.7v-32.4
			c0-11.1,9.1-20.2,20.2-20.2h7c11.1,0,20.2,9.1,20.2,20.2v32.4c0,1.9-0.9,3.6-2.5,4.7c-2.5,1.6-4,4.4-4,7.4v31.3
			c0,4,2.3,7.6,5.8,9.3c4,2,25,12.6,44.4,28.4c1.5,1.3,2.4,3.2,2.4,5.2v22.2C713.1,682.7,717.1,686.7,722,686.7z"/>
		<path id="XMLID_19_" class="st0" d="M453.4,636.5c-17-14-35.2-24.1-43.7-28.5v-22.6c4.2-4.3,6.5-10.1,6.5-16.3v-32.4
			c0-21-17.1-38.1-38.1-38.1h-7c-21,0-38.1,17.1-38.1,38.1v32.4c0,6.2,2.4,12,6.5,16.3V608c-8.5,4.4-26.6,14.6-43.7,28.5
			c-5.7,4.7-9,11.6-9,19v22.2c0,5,4,9,9,9s9-4,9-9v-22.2c0-2,0.9-3.9,2.4-5.2c19.4-15.9,40.3-26.5,44.4-28.4
			c3.5-1.7,5.8-5.4,5.8-9.3v-31.3c0-3-1.5-5.8-4-7.4c-1.5-1.1-2.5-2.8-2.5-4.7v-32.4c0-11.1,9.1-20.2,20.2-20.2h7
			c11.1,0,20.2,9.1,20.2,20.2v32.4c0,1.9-0.9,3.6-2.5,4.7c-2.5,1.6-4,4.4-4,7.4v31.3c0,4,2.3,7.6,5.8,9.3c4,2,25,12.5,44.4,28.4
			c1.5,1.3,2.4,3.2,2.4,5.2v22.2c0,5,4,9,9,9s9-4,9-9v-22.2C462.4,648.1,459.1,641.2,453.4,636.5z"/>
		<path id="XMLID_18_" class="st0" d="M559.9,583c1.4,0.8,3,1.2,4.4,1.2c3.1,0,6.2-1.6,7.8-4.5c2.4-4.3,1-9.8-3.3-12.2l-50.3-29
			v-58.1c0-5-4-9-9-9c-5,0-9,4-9,9v58.1l-50.3,29.1c-4.3,2.4-5.8,8-3.3,12.2c1.6,2.9,4.7,4.5,7.8,4.5c1.5,0,3.1-0.4,4.4-1.2
			l50.3-29.1L559.9,583z"/>
	</g>
</g>
</svg>
