<?xml version="1.0" encoding="utf-8"?>
<!-- Generator: Adobe Illustrator 19.0.0, SVG Export Plug-In . SVG Version: 6.00 Build 0)  -->
<svg version="1.1" id="Слой_1" xmlns="http://www.w3.org/2000/svg" xmlns:xlink="http://www.w3.org/1999/xlink" x="0px" y="0px"
	 viewBox="0 0 597.9 680" style="enable-background:new 0 0 597.9 680;" xml:space="preserve">
<style type="text/css">
	.st0{fill:#FFFFFF;}
</style>
<g>
	<path class="st0" d="M0,666.2C0,448.7,0,231.3,0,13.8C2.2,6.8,6.8,2.2,13.8,0C203.9,0,394,0,584.1,0c2.5,1.3,5.3,2,7.5,3.9
		c5.5,4.6,6.2,10.7,6.2,17.3c0,212.5,0,425,0,637.6c0,1.9,0,3.8-0.1,5.7c-0.9,8.5-6.8,14.4-15.3,15.3c-2,0.2-4.1,0.2-6.1,0.2
		c-184.9,0-369.8,0-554.7,0.1C11,680,3.4,676.7,0,666.2z M586.6,357.1c0-100.5,0-200.9,0-301.4c0-8.7,0-8.7-8.7-8.7
		c-186,0-372,0-558.1,0c-8.6,0-8.6,0-8.6,8.7c0,200.6,0,401.3,0,601.9c0,10.7,0.3,11,10.9,11c184.5,0,369.1,0,553.6,0
		c1.5,0,3,0,4.5,0c4.6-0.2,6.2-1.8,6.4-6.5c0.1-1.8,0-3.5,0-5.3C586.6,556.9,586.6,457,586.6,357.1z M298.8,39.1
		c92.9,0,185.7,0,278.6,0c1.8,0,3.5,0,5.3,0c2.7,0,4-1.3,4-4c0-4.3,0-8.7,0-13c0-10.4-0.4-10.8-10.7-10.8c-184.6,0-369.3,0-553.9,0
		c-1.5,0-3,0-4.5,0c-4.4,0.2-6.1,1.8-6.2,6.3c-0.1,5.1-0.1,10.3,0,15.4c0,5.6,0.5,6,6,6.1c1.5,0,3,0,4.5,0
		C114.1,39.1,206.4,39.1,298.8,39.1z"/>
	<path class="st0" d="M299.3,122c84.9,0,169.8,0,254.7,0c2,0,4.1-0.1,6.1,0.1c5,0.4,7.9,3.3,8.4,8.3c0.2,1.6,0.1,3.2,0.1,4.9
		c0,57.7,0,115.3,0,173c0,1.9,0,3.8-0.2,5.7c-0.6,4.2-3.2,6.9-7.4,7.4c-2,0.3-4.1,0.2-6.1,0.2c-170.3,0-340.6,0-510.9,0
		c-1.8,0-3.5,0-5.3-0.1c-5-0.5-7.9-3.3-8.4-8.3c-0.2-1.6-0.1-3.2-0.1-4.9c0-57.7,0-115.3,0-173c0-1.9,0-3.8,0.2-5.7
		c0.6-4.2,3.2-6.9,7.4-7.4c2.3-0.3,4.6-0.2,6.9-0.2C129.6,122,214.5,122,299.3,122z M299.3,312.1c84.2,0,168.4,0,252.6,0
		c6.9,0,7.1-0.2,7.1-7c0-55.5,0-111,0-166.5c0-6.8-0.2-7-7.1-7c-168.3,0-336.6,0-504.9,0c-7.2,0-7.3,0.1-7.3,7.2
		c0,55.4,0,110.7,0,166.1c0,1.1,0,2.2,0,3.2c0,2.7,1.4,3.9,4,3.9c1.6,0,3.2,0,4.9,0C132.2,312.1,215.7,312.1,299.3,312.1z"/>
	<path class="st0" d="M107.6,454c-21.8,0-43.6,0-65.4,0c-9.4,0-12.1-2.7-12.1-12.1c0-28.2,0-56.3,0-84.5c0-9.4,2.7-12.1,12.1-12.1
		c43.6,0,87.2,0,130.7,0c9.4,0,12.1,2.7,12.1,12.1c0,28.2,0,56.3,0,84.5c0,9.4-2.7,12.1-12.1,12.1C151.2,454,129.4,454,107.6,454z
		 M107.2,444.5c20.7,0,41.4,0,62.1,0c5.8,0,6.2-0.4,6.2-6.3c0-25.7,0-51.4,0-77.2c0-5.6-0.5-6.1-6-6.1c-41.3,0-82.6,0-123.9,0
		c-5.5,0-6,0.5-6,6.1c0,25.7,0,51.4,0,77.2c0,5.9,0.4,6.3,6.2,6.3C66.4,444.5,86.8,444.5,107.2,444.5z"/>
	<path class="st0" d="M299.8,345.4c21.7,0,43.3,0,65,0c9.4,0,12.1,2.7,12.1,12.1c0,28.2,0,56.3,0,84.5c0,9.4-2.7,12.1-12.1,12.1
		c-43.6,0-87.2,0-130.7,0c-9.4,0-12.1-2.7-12.1-12.1c0-28.2,0-56.3,0-84.5c0-9.4,2.7-12.1,12.1-12.1
		C255.9,345.4,277.9,345.4,299.8,345.4z M299,444.5c20.8,0,41.7,0,62.5,0c5.3,0,5.8-0.5,5.8-5.9c0-25.9,0-51.7,0-77.6
		c0-5.6-0.5-6.1-6-6.1c-41.3,0-82.6,0-123.9,0c-5.5,0-6,0.5-6,6.1c0,25.7,0,51.4,0,77.2c0,5.9,0.4,6.3,6.2,6.3
		C258.1,444.5,278.5,444.5,299,444.5z"/>
	<path class="st0" d="M491.1,345.4c21.8,0,43.6,0,65.4,0c9.4,0,12.1,2.7,12.1,12.1c0,28.2,0,56.3,0,84.5c0,9.4-2.7,12.1-12.1,12.1
		c-43.6,0-87.2,0-130.7,0c-9.4,0-12.1-2.7-12.1-12.1c0-28.2,0-56.3,0-84.5c0-9.4,2.7-12.1,12.1-12.1
		C447.5,345.4,469.3,345.4,491.1,345.4z M490.7,444.5c20.7,0,41.4,0,62.1,0c5.8,0,6.2-0.4,6.2-6.3c0-25.7,0-51.4,0-77.2
		c0-5.6-0.5-6.1-6-6.1c-41.3,0-82.6,0-123.9,0c-5.5,0-6,0.5-6,6.1c0,25.7,0,51.4,0,77.2c0,5.9,0.4,6.3,6.2,6.3
		C449.8,444.5,470.2,444.5,490.7,444.5z"/>
	<path class="st0" d="M299.8,543.6c86.8,0,173.6,0,260.4,0c1.8,0,3.5,0,5.3,0.1c2.5,0.1,3.1,1.7,3.1,3.9c0,2.2-0.7,3.7-3.1,3.9
		c-1.4,0.1-2.7,0.1-4.1,0.1c-174.7,0-349.3,0-524,0c-6.3,0-7.4-0.7-7.2-4.4c0.1-2.1,1-3.4,3.1-3.5c1.8-0.1,3.5-0.1,5.3-0.1
		C125.7,543.6,212.7,543.6,299.8,543.6z"/>
	<path class="st0" d="M289.6,623c-83.7,0-167.3,0-251,0c-1.8,0-3.5,0-5.3-0.1c-2.5-0.1-3.1-1.7-3.1-3.9c0-2.2,0.7-3.7,3.1-3.9
		c1.4-0.1,2.7-0.1,4.1-0.1c168.2,0,336.3,0,504.5,0c1.5,0,3,0,4.5,0.1c2.3,0.2,2.7,1.9,2.7,3.8c0,1.9-0.4,3.6-2.7,3.8
		c-1.7,0.2-3.5,0.2-5.3,0.2C457.2,623,373.4,623,289.6,623z"/>
	<path class="st0" d="M267.3,579.3c76.2,0,152.4,0,228.7,0c1.8,0,3.5,0,5.3,0.1c2.5,0.1,3.1,1.7,3.1,3.9c0,2.2-0.7,3.7-3.1,3.9
		c-1.4,0.1-2.7,0.1-4.1,0.1c-153.3,0-306.5,0-459.8,0c-1.5,0-3,0-4.5-0.1c-2.3-0.2-2.7-1.9-2.7-3.8c0-1.9,0.4-3.6,2.7-3.8
		c1.7-0.2,3.5-0.2,5.3-0.2C114.6,579.3,190.9,579.3,267.3,579.3z"/>
	<path class="st0" d="M401,99.8c-15.8,0-31.7,0-47.5,0c-8.4,0-11.3-2.9-11.4-11.2c0-3.5,0-7,0-10.6c0.1-8.4,2.9-11.3,11.2-11.3
		c15.8-0.1,31.7,0,47.5,0c15.8,0,31.7,0,47.5,0c8.4,0,11.3,2.9,11.4,11.2c0,3.5,0,7,0,10.6c-0.1,8.4-2.9,11.3-11.2,11.3
		C432.7,99.9,416.8,99.8,401,99.8z M400.5,93.5c3.1,0,6.2,0,9.3,0c12.7,0,25.4,0,38.1,0c4.8,0,5.3-0.7,5.4-5.4c0-2.7,0-5.4,0-8.1
		c0-6.6-0.3-6.9-6.8-6.9c-28.4,0-56.8,0-85.2,0c-3,0-6,0-8.9,0c-2.7,0-4,1.3-4,4c0,3.4,0,6.8,0,10.1c0,5.8,0.4,6.3,6.2,6.3
		C369.9,93.5,385.2,93.5,400.5,93.5z"/>
	<path class="st0" d="M71.9,87.6c-9.7,0-19.5,0-29.2,0c-2.8,0-5.2-0.2-5.2-4c0-3.8,2.4-4,5.2-4c19.5,0,39,0,58.5,0
		c2.8,0,5.2,0.1,5.2,3.9c0,3.8-2.4,4-5.2,4C91.4,87.6,81.6,87.6,71.9,87.6z"/>
	<path class="st0" d="M173.4,79.7c9.7,0,19.5,0,29.2,0c2.8,0,5.2,0.2,5.2,3.9c0,3.8-2.4,4-5.2,4c-19.5,0-39,0-58.5,0
		c-2.8,0-5.2-0.2-5.2-3.9c0-3.8,2.4-4,5.2-4C153.9,79.7,163.7,79.7,173.4,79.7z"/>
	<path class="st0" d="M275,87.6c-9.7,0-19.5,0-29.2,0c-2.8,0-5.2-0.2-5.2-4c0-3.8,2.4-4,5.2-4c19.5,0,39,0,58.5,0
		c2.8,0,5.2,0.2,5.2,4c0,3.8-2.4,4-5.2,4C294.5,87.6,284.7,87.6,275,87.6z"/>
	<path class="st0" d="M526.4,87.6c-9.6,0-19.2,0-28.8,0c-2.8,0-5.2-0.2-5.2-4c0-3.8,2.4-4,5.2-4c19.5,0,39,0,58.5,0
		c2.8,0,5.2,0.2,5.2,4c0,3.8-2.4,4-5.2,4C546.2,87.6,536.3,87.6,526.4,87.6z"/>
	<path class="st0" d="M64.2,502.8c-9.6,0-19.2,0-28.8,0c-2.8,0-5.2-0.2-5.2-4c0-3.8,2.4-4,5.2-4c19.5,0,39,0,58.5,0
		c2.8,0,5.2,0.2,5.2,4c0,3.8-2.4,4-5.2,4C83.9,502.8,74.1,502.8,64.2,502.8z"/>
</g>
</svg>
