<?xml version="1.0" encoding="utf-8"?>
<!-- Generator: Adobe Illustrator 19.0.0, SVG Export Plug-In . SVG Version: 6.00 Build 0)  -->
<svg version="1.1" id="Слой_1" xmlns="http://www.w3.org/2000/svg" xmlns:xlink="http://www.w3.org/1999/xlink" x="0px" y="0px"
	 viewBox="0 0 832 832" style="enable-background:new 0 0 832 832;" xml:space="preserve">
<style type="text/css">
	.st0{fill:#FFFFFF;}
</style>
<g>
	<path class="st0" d="M416.6,831.4c-0.6-0.4-1.3-0.8-1.9-1.3c-1.2-1.1-2.4-2.3-3.6-3.5C276.5,692,141.9,557.4,7.4,422.8
		c-5.8-5.8-5.8-5.8-0.2-11.5C141.9,276.7,276.6,142,411.3,7.3c1.2-1.2,2.4-2.3,3.6-3.5c1.5-1.4,2.9-1.4,4.4,0
		c1.1,1.1,2.1,2.1,3.2,3.2c134.9,134.9,269.8,269.8,404.8,404.8c5.3,5.3,5.3,5.3,0.2,10.4C692.2,557.3,557,692.4,421.8,827.6
		C420.4,829.1,419.2,831.1,416.6,831.4z M545.6,343.5c-0.1-2.7-2.2-2.8-3.9-3.4c-10.5-3.2-21-6.5-31.6-9.6c-3.6-1-5.6-3.1-6.7-6.6
		c-3-10.1-6.3-20-9.1-30.1c-1.1-3.9-2.4-4.9-6.2-2.9c-22.2,11.9-44.4,23.6-66.6,35.5c-2.8,1.5-5.1,1.6-7.9,0
		c-22.2-11.9-44.4-23.6-66.6-35.5c-3.7-2-5.2-1.2-6.3,2.8c-2.9,10.1-6.2,20.1-9.1,30.1c-1,3.6-3,5.6-6.6,6.7
		c-10.1,3-20.1,6.2-30.1,9.2c-6.3,1.9-6.4,2.4-3.4,8.1c11.9,22.2,23.6,44.4,35.4,66.6c1.2,2.3,1,4.3-0.2,6.6
		c-11.7,21.9-23.2,43.9-34.9,65.7c-2,3.7-1.3,5.3,2.6,6.4c10.1,2.9,20,6.2,30.1,9.1c4,1.1,6.1,3.4,7.3,7.3c3,10.6,6.5,21,9.5,31.6
		c1.2,4.1,2.8,4.4,6.4,2.5c22.1-11.9,44.4-23.6,66.6-35.4c2.3-1.2,4.3-1.3,6.6,0c22.2,11.8,44.5,23.5,66.6,35.5
		c4.1,2.2,5.4,1.1,6.6-2.9c2.9-10.3,6.3-20.4,9.2-30.6c1.2-4.3,3.5-6.8,7.8-8c10.1-2.8,20.1-6.1,30.1-9.1c3.4-1,4.2-2.5,2.5-5.8
		c-11.6-21.7-23-43.6-34.7-65.3c-1.7-3.2-1.8-5.6-0.1-8.8c11.9-22.1,23.6-44.4,35.4-66.6C544.8,345.5,545.2,344.4,545.6,343.5z
		 M417.4,140.9c-6.9,0.4-14.4,0.3-21.9,0.6c-7,0.3-9.3,3.5-11.1,9.5c-12.1,40.3-24.5,80.6-37,120.8c-1.4,4.4-0.6,6.7,3.4,8.7
		c21.1,11,42.2,22.1,63.2,33.3c2.3,1.2,4.3,1.4,6.6,0.1c21.2-11.2,42.4-22.4,63.6-33.5c3.7-1.9,4.8-4.1,3.4-8.4
		c-6.2-19.3-12-38.8-17.9-58.2c-6.7-22-13.5-43.9-20.2-65.9c-1.2-4.1-3.3-5.7-7.7-6.2C433.9,140.8,425.9,141.2,417.4,140.9z
		 M695.1,419.5c0-10.1,0-18.7-0.9-27.3c-0.4-4-1.7-5.8-5.5-6.9c-41.4-12.6-82.8-25.3-124.2-38c-6.9-2.1-7-2.1-10.3,4.3
		c-10.9,20.6-21.7,41.3-32.6,61.8c-1.5,2.8-1.7,5-0.2,7.9c11,20.6,21.8,41.2,32.6,61.9c2,3.9,4.2,4.7,8.3,3.4
		c19-6.1,38.2-11.8,57.3-17.6c22.9-7,45.8-14.1,68.8-21.1c3.8-1.2,5.5-3.1,6.1-7.3C695.4,433.1,694.7,425.6,695.1,419.5z
		 M274.9,345.9c-0.8,0.2-1.9,0.6-3,0.9c-27.1,8.3-54.2,16.5-81.2,24.8c-14.5,4.4-29,8.9-43.4,13.4c-2.4,0.7-4.8,1.5-5.1,4.7
		c-1.4,16.8-1.5,33.6-0.5,50.4c0.3,5.2,2.8,7.1,7.3,8.4c41.6,12.6,83.2,25.4,124.7,38.2c3.6,1.1,5.5,0.2,7.2-3
		c10.7-20.5,21.4-41,32.3-61.5c1.9-3.5,1.7-6.4-0.1-9.8c-7.9-14.8-15.6-29.8-23.5-44.7c-3.3-6.2-6.5-12.4-9.9-18.5
		C278.6,347.7,277.8,345.5,274.9,345.9z M418.1,695.1c8-0.3,16,0.2,23.9-0.9c3.6-0.5,5.3-1.9,6.2-5.2c1.5-5.3,3.3-10.5,4.9-15.8
		c11.3-36.9,22.6-73.9,34-110.8c1.2-3.9,0.3-6.2-3.3-8.1c-20.5-10.7-41-21.4-61.5-32.3c-3.5-1.9-6.4-1.8-9.8,0.1
		c-20.3,10.8-40.6,21.5-61,32.1c-3.7,1.9-4.9,4.2-3.6,8.4c4.5,14.1,8.7,28.3,13.1,42.5c8.6,27.9,17.2,55.7,25.7,83.6
		c1.1,3.7,3,5.1,7,5.5C401.8,695.2,409.9,694.9,418.1,695.1z M691.8,462.2c0-4.2-2.8-2.7-5.1-2c-39.8,12.2-79.6,24.5-119.4,36.6
		c-4,1.2-4.5,2.8-2.6,6.4c17.1,32,34,64.1,51,96.2c4.4,8.3,4.9,8.4,10.9,1.4c26.5-30.8,46.2-65.5,57.6-104.7
		C687.4,485.2,690,474,691.8,462.2z M462.4,691.9c0.9-0.2,1.7-0.4,2.5-0.5c22.6-3.7,44.4-10.3,65.4-19.6
		c26.5-11.8,50.6-27.4,72.3-46.7c5.1-4.5,4.9-5.1-1-8.2c-13.8-7.3-27.7-14.6-41.5-21.9c-18.7-9.9-37.4-19.7-56-29.8
		c-4-2.2-5.3-1.4-6.5,2.7c-8.5,27.9-17.1,55.7-25.7,83.5c-3.7,12.1-7.4,24.2-11.1,36.3C460,689.5,458.8,691.8,462.4,691.9z
		 M144.2,462.6c0.1,0.7,0.3,1.5,0.5,2.3c2.9,17.6,7.6,34.8,13.9,51.5c12,31.6,29.5,60,51.8,85.4c4.3,4.9,5.2,4.7,8.3-1.2
		c7.4-14,14.7-28,22.1-42c9.7-18.4,19.4-36.8,29.4-55.1c2-3.7,1.8-5.5-2.6-6.8c-32.7-9.9-65.3-20-97.9-30.1
		c-7.2-2.2-14.3-4.4-21.5-6.5C146,459.5,144,459.2,144.2,462.6z M374.7,688.9c-0.2-0.6-0.3-1.3-0.5-1.9
		c-12.3-40.1-24.7-80.2-36.9-120.3c-1.1-3.5-2.7-3.4-5.5-1.9c-31.1,16.6-62.3,33.1-93.5,49.5c-11,5.8-11,5.9-1.5,13.9
		c26.5,22.3,55.8,39.8,88.5,51.4c14.8,5.2,29.9,9.3,45.4,11.7C372.5,691.5,374.8,692.3,374.7,688.9z M463.3,144.3
		c-3.8-0.3-2.2,2.3-1.7,4.2c12.2,39.8,24.4,79.6,36.5,119.4c1,3.1,2.1,3.9,5.3,2.2c31.9-17,63.8-33.9,95.7-50.7
		c7.8-4.1,7.9-4.8,1-10.7c-26.5-22.6-55.8-40.2-88.6-52C496,151.2,480,147.1,463.3,144.3z M691.3,370.5c-0.2-1.4-0.5-3.1-0.8-4.7
		c-3.1-15.9-7.4-31.4-13.2-46.5c-12.2-31.7-29.6-60.3-52.2-85.6c-4.9-5.5-5.6-5.2-8.9,1.1c-16.8,31.8-33.5,63.6-50.4,95.4
		c-2.2,4.2-1,5.4,3,6.6c23.6,7.1,47.1,14.5,70.6,21.7c15.7,4.8,31.5,9.7,47.3,14.4C688.6,373.3,691.5,375.3,691.3,370.5z
		 M373.6,147.6c0.3-2.3-0.6-3-2.3-2.9c-1.7,0.2-3.3,0.4-4.9,0.7c-28.7,5.4-55.9,15.2-81.5,29.2c-18.6,10.2-35.8,22.5-51.6,36.7
		c-4.5,4.1-4.4,4.6,1.2,7.5c8.4,4.4,16.9,8.7,25.2,13.2c23.8,12.6,47.7,25.2,71.4,38c3.7,2,4.8,1.1,5.9-2.5
		c9.9-32.7,20-65.3,30-97.9C369.3,162,371.5,154.5,373.6,147.6z M144.6,370.1c-0.5,4.7,2.3,3,4.4,2.4
		c38.7-11.9,77.4-23.8,116.1-35.7c6.4-2,6.5-2.1,3.4-8.1c-16.4-31.1-32.7-62.2-49.2-93.2c-3.7-7-4.1-7-9.7-0.6
		c-29.3,33.6-49.6,72-60.6,115.2C147.3,356.7,146,363.5,144.6,370.1z M259.2,176.4c9.3-5.3,18.2-10.9,27.5-15.6
		c26.9-13.7,55.2-23.2,85.2-27.7c4.7-0.7,7.2-2.6,8.6-7.4c8.2-27.6,16.9-55.1,25.3-82.6c1.9-6.2,3.7-12.4,5.8-19.1
		C360.5,75.1,310,125.6,259.2,176.4z M172.8,570.8c-4.3-7.6-8.5-14.6-12.2-21.8c-14.3-28.2-23.8-57.9-28.2-89.1
		c-0.5-3.7-2.2-5.3-5.7-6.3c-32.2-9.8-64.3-19.8-96.5-29.6c-1.9-0.6-3.8-1.6-5.5-1.1C74,472,123.2,521.2,172.8,570.8z M174.4,262.7
		c-47.8,47.8-98,98-147.4,147.4c-0.5,0.1,0.5-0.1,1.4-0.4c32.5-10,64.9-20.2,97.4-29.9c4.8-1.4,6.6-3.8,7.4-8.5
		c5.1-32,15.2-62.4,31-90.7C168.2,273.4,172.3,266.5,174.4,262.7z M570.3,172.5c-0.2,0.2-0.4,0.4-0.6,0.5
		c-48.6-48.6-97.2-97.2-145.5-145.5c-0.1,0.2,0.6,1.3,0.9,2.4c9.7,31.5,19.6,63,29,94.6c1.7,5.8,4.6,7.9,10.2,8.8
		c32.4,5,63,15.4,91.7,31.3C560.8,167.2,565.5,169.8,570.3,172.5z M411.3,808.8c-0.1-0.6-0.3-2.1-0.7-3.5
		c-9.6-31.4-19.4-62.7-28.8-94.1c-1.7-5.5-4.6-7.5-10.1-8.4c-32.9-5.1-63.9-15.8-93.1-31.9c-4.4-2.4-8.4-5.6-12.1-6.8
		C314.5,712,363,760.6,411.3,808.8z M666.8,564.9c47.3-47.3,94.9-94.9,142.4-142.4c-0.5-0.3-1.4,0.4-2.3,0.7
		c-32.5,10-64.9,20.1-97.4,30c-3.7,1.1-5.3,2.9-5.9,6.8c-5.1,34.6-15.8,67.3-33,97.9C669.2,560.3,667.8,562.9,666.8,564.9z
		 M663.6,266.1c-0.3,1,1.1,1.9,1.8,3.1c7.1,11.9,13.5,24.1,18.8,36.9c8.9,21.5,15.4,43.6,18.8,66.6c0.5,3.1,1.4,5.5,5,6.6
		c28.7,8.7,57.3,17.6,86,26.3c4.5,1.4,8.9,3.4,13,3.7C759.3,361.7,711.3,313.8,663.6,266.1z M565,666.6c-4.2,2.3-8.7,5.1-13.3,7.4
		c-27.9,14.3-57.3,24.5-88.4,28.9c-5.7,0.8-8.6,3.1-10.2,8.8c-7,23.6-14.4,47.1-21.7,70.7c-2.7,8.7-5.2,17.4-7.7,25.5
		C470.7,760.9,518,713.7,565,666.6z M230,605c1.4,0.6,2.2-0.5,3.2-1c15.1-7.9,30.1-15.7,45.1-23.6c16.6-8.8,33.2-17.7,49.9-26.4
		c3-1.6,4.2-3.4,3.1-6.8c-3.2-9.8-6.2-19.7-9.2-29.6c-1-3.3-2.9-4.9-6.1-5.8c-8.9-2.6-17.9-5.2-26.7-8.3c-4.1-1.4-6.3-0.6-8.4,3.3
		c-16.5,31.6-33.2,63.1-49.8,94.6C230.7,602.5,229.4,603.4,230,605z M604.6,605.5c0.3-0.2,0.5-0.5,0.8-0.7c-0.5-1-0.9-2-1.4-3
		c-7.4-14.2-14.8-28.3-22.3-42.5c-9.3-17.7-18.7-35.3-28-53c-1.5-2.9-3.2-4.3-6.7-3.1c-9.3,3.1-18.7,5.9-28.2,8.7
		c-3.2,0.9-5,2.8-6,6c-2.7,9.3-5.4,18.6-8.6,27.7c-1.7,4.9-0.3,7.1,4.1,9.4c21.1,11,42.1,22.3,63.1,33.4
		C582.4,594,593.5,599.7,604.6,605.5z M230.4,229.5c-0.3,0.3-0.6,0.6-0.9,0.9c4.8,9.1,9.5,18.2,14.3,27.3
		c12.3,23.3,24.6,46.5,36.8,69.8c1.5,2.9,3.3,3.8,6.4,2.7c9.7-3.1,19.4-6.1,29.1-9c3.2-0.9,5.1-2.7,6-5.9c2.6-8.8,5.1-17.6,8.1-26.2
		c1.6-4.6,0.6-6.7-3.7-8.9c-21.1-10.9-42.1-22.2-63.1-33.4C252.5,241,241.4,235.3,230.4,229.5z M605,229.9c-1.3-0.3-2.1,0.6-3.1,1.1
		c-15,7.9-30.1,15.7-45.1,23.6c-16.6,8.8-33.2,17.7-49.9,26.4c-2.9,1.5-3.7,3.2-2.7,6.4c3.1,9.3,5.9,18.7,8.7,28.1
		c0.9,3,2.7,4.7,5.7,5.6c9.6,2.8,19.1,5.7,28.6,8.9c3.8,1.3,5.7,0.3,7.5-3.2c16.3-31.1,32.7-62.2,49.1-93.2
		C604.3,232.5,605.6,231.6,605,229.9z M417.5,46.4c-1.2,0.4-1.4,1.5-1.6,2.4c-7.8,25.4-15.6,50.9-23.5,76.3c-1.2,3.9,0.2,5.1,4,4.9
		c13.4-0.8,26.8-1.3,40.3-0.1c7.1,0.6,7.3-0.1,5.2-6.8c-7.4-24.2-14.8-48.3-22.3-72.5C419.2,49.2,419.2,47.3,417.5,46.4z
		 M47.2,415.8c0.8,1.9,1.8,2,2.8,2.3c25,7.7,50,15.3,74.9,23c4.4,1.4,5.5-0.7,5.2-4.4c-1.4-13.3-0.6-26.6,0-39.8
		c0.3-6-0.7-6.5-6.3-4.7c-15.6,4.8-31.2,9.5-46.8,14.3C67.1,409.6,57.3,412.7,47.2,415.8z M788,417c-1.2-1.9-2.4-2.1-3.5-2.4
		c-24.5-7.5-49-15-73.4-22.6c-3.8-1.2-5.3-0.1-5.1,3.8c0.6,13.4,1.5,26.8,0.1,40.3c-0.6,5.7,0.4,6.1,5.9,4.4
		c16.4-5,32.7-10,49.1-15.1C770,422.7,778.8,419.9,788,417z M416.7,786.6c0.4,0,0.8,0,1.2,0c0.3-0.7,0.8-1.4,1-2.2
		c7.5-24.5,15-49,22.7-73.4c1.2-3.8,0.4-5.4-3.7-5c-13.6,1.3-27.2,0.9-40.8,0c-4.6-0.3-4.8,1.8-3.6,5.5
		c5.2,16.3,10.1,32.7,15.1,49.1C411.3,769.2,414,777.9,416.7,786.6z"/>
</g>
</svg>
