<?xml version="1.0" encoding="utf-8"?>
<!-- Generator: Adobe Illustrator 19.0.0, SVG Export Plug-In . SVG Version: 6.00 Build 0)  -->
<svg version="1.1" id="Слой_1" xmlns="http://www.w3.org/2000/svg" xmlns:xlink="http://www.w3.org/1999/xlink" x="0px" y="0px"
	 viewBox="0 0 1349 615" style="enable-background:new 0 0 1349 615;" xml:space="preserve">
<style type="text/css">
	.st0{fill:#434749;}
	.st1{fill:#252525;}
	.st2{fill:#232728;}
	.st3{fill:#252F31;}
	.st4{fill:#121516;}
	.st5{fill:#111B1F;}
	.st6{fill:#141618;}
	.st7{fill:#030C11;}
	.st8{fill:#1B1F20;}
	.st9{fill:#494949;}
	.st10{fill:#4A4A4A;}
	.st11{fill:#494A4A;}
	.st12{fill:#464646;}
	.st13{fill:#0D1111;}
	.st14{fill:#474747;}
	.st15{fill:#484949;}
	.st16{fill:#484848;}
	.st17{fill:#474848;}
	.st18{fill:#484849;}
	.st19{fill:#444545;}
	.st20{fill:#434445;}
	.st21{fill:#424343;}
	.st22{fill:#434444;}
	.st23{fill:#3E4040;}
	.st24{fill:#3E3F40;}
	.st25{fill:#3F4040;}
	.st26{fill:#070E12;}
	.st27{fill:#454646;}
</style>
<g>
	<path class="st0" d="M1204.5,615.6c-12,0-24,0-36,0c-1.8-1.5-2.6-3.3-2.5-5.7c0.1-2.2,0-4.3,0-6.5c0-62.3,0-124.5,0-186.8
		c0-14.5-1.1-15.6-15.6-15.7c-2.5,0-5,0.3-7.3-1c-2.8-0.8-4-2.6-4-5.5c0.1-4.8-0.4-9.7,1.4-14.3c0.6-1.6,0.4-3.3,0.4-4.9
		c0-25.8,0.2-51.6-0.1-77.4c-0.1-7.2-2-14.4-2.2-21.7c0-1.3-0.9-2.5-1.7-3.5c-3-3.2-7-2.8-10.8-2.8c-34.5-0.1-69,0-103.4,0
		c-1.7,0-3.3,0-5,0.2c-2.2,0.2-4.2,0.8-5.8,2.6c-0.5,0.7-1.2,1.4-1.2,2.1c-0.5,9.6-4.1,19.1-2.4,28.6c1.2,6.8,1.6,13.5,1.6,20.3
		c0,2,0.2,4-1.2,5.7c-0.5,0.5-1.1,0.7-1.8,0.7c-15.8,1.2-31.6,1.9-47.5,1.8c-2,0-4,0-6,0c-10.6-0.2-21.2,0.4-31.8-0.4
		c-3.8-5.8-9.8-3.1-14.9-3.8c-3.3-0.4-6.8,0.2-10.2-0.1c-5.7-0.5-7.2-1.7-7.6-7.1c-0.2-2.7,0-5.3-0.2-8c-0.1-1.3,0.1-2.7-1.7-3.7
		c-1.8,3.3-1.1,6.9-1.1,10.2c-0.2,7.5-1.3,8.7-9.1,8.7c-3.5,0-6.9,0.8-10.3,1.2c-6.2,0.8-8.2,2.8-8.4,9c-0.4,8.3-0.1,16.7-0.1,25
		c0,1.7,0.1,3.4-0.2,5c-0.4,1.9-1,3.8-3.3,3.7c-2.3-0.1-4.2-1.2-4.3-3.9c-0.2-6.6-0.9-13.3,1-19.9c0.6-2,0.7-3.9,0.7-5.9
		c0-24,0.2-48-0.1-72.1c-0.1-6.9-1.9-13.8-2.2-20.7c-0.2-4.4-3.9-5.3-7.7-5.4c-9.5-0.2-19-0.1-28.5-0.1c-29.7,0-59.3,0-89,0
		c-3.2,0-6.4-0.2-8.9,2.3c-2.7,2.8-2.5,6.4-2.6,9.9c-0.1,16.7,0,33.3,0,50c0,48-0.1,96,0.1,144c0.1,15.5-1.7,30.9-1.1,46.5
		c0.1,1.8,0.2,3.7-1.5,5c-2.4,1.6-4.1,0.8-5.9-1.3c-4.6-5.4-9.6-10.5-16-13.9c-0.8-3.1-0.6-6.3-0.6-9.5c0-52.7,0-105.4,0-158.1
		c0-2.2,0-4.3,0-6.5c-0.1-11.3-1.2-12.7-12.4-13.3c-4.5-0.3-5.6-2.5-5.6-6.4c0-12,0-24,0-36c0-2.3,0.1-4.7-0.1-7
		c-0.5-5.8-2.7-8-8.5-8.5c-4.2-0.3-8.3-0.1-12.5-0.2c-19.3-0.2-16.6,2.2-16.9-16.6c0-2.5,0.1-5-0.2-7.5c-0.3-2,0-5-3-4.9
		c-2.5,0.1-2.5,2.8-2.7,4.7c-0.4,4.8-0.2,9.7-0.2,14.5c0,9.7-0.1,9.8-10,9.8c-4.5,0-9-0.1-13.5,0c-9.2,0.2-11.4,2.3-11.5,11.7
		c-0.1,12.8,0,25.7-0.1,38.5c0,7.2-0.5,7.7-7.6,7.8c-1.2,0-2.3,0-3.5,0.1c-7.2,0.4-9.5,2.6-9.8,9.8c-0.2,2.8-0.1,5.7-0.1,8.5
		c0,96.4,0,192.8,0,289.2c0,3.3,0.7,6.8-2.5,9.3c-7,0-14,0-21,0c-2.9-2.1-2.5-5.2-2.5-8.1c0-29.4,0-58.7,0-88.1
		c0-27.5,0-55.1,0-82.6c0-2.2,0.1-4.3-0.1-6.5c-0.5-4.9-2.3-6.8-7.2-7.3c-3.3-0.3-6.7-0.2-10-0.2c-3.7,0-5.6-1.4-5.6-5.5
		c0-15,0-30,0-45c0-2.4,0.6-4.3,3.2-5.5c4.9-2.3,5.6-4.2,4.3-9.6c-3.4-14.4-11.9-25.2-24.3-33c-5.7-3.6-11.9-6-18.5-7.3
		c-5.9-1.1-6.7-2.2-6.8-8.4c-0.1-4,0.1-8-0.1-12c-0.1-2,0.3-5.1-2.5-5.1c-2.4,0-2.1,3-2.3,4.9c-0.2,3.8-0.1,7.7-0.1,11.5
		c-0.1,6.9-0.5,7.4-7.4,8.9c-16.5,3.5-28.5,13.1-37,27.5c-2.6,4.3-4.4,9-5.3,14c-0.7,3.5-0.2,6.7,2.8,9c2.4,1.8,2.7,4.2,2.5,7.1
		c-1,13.7-1,27.3,0,41c0.4,5.7-0.9,7.3-6.8,7.5c-2.5,0.1-5,0-7.5,0.1c-7.1,0.3-9.1,2.2-9.2,9.5c-0.2,7.7,0,15.3-0.1,23
		c0,2.4,0.8,5.6-2.1,6.6c-3.2,1.2-4.6-1.9-6-4c-8.2-11.7-19.6-18.3-33.5-20.8c-7.9-1.5-8.1-2-8.5-9.6c-0.1-2.8,0.9-7.5-2.7-7.6
		c-4.2-0.1-3,4.7-3.1,7.7c-0.3,8.1-0.2,8.1-8.2,10.4c-19.4,5.6-31.6,18.5-37.3,37.6c-1.4,4.5-1.7,8.8,2.8,12.1
		c2.3,1.7,1.6,4.6,1.6,7c0,29.9,0,59.7,0,89.6c0,8.2,0,16.3,0,24.5c0,2.5-0.2,5-2.5,6.6c-7,0-14,0-21,0c-2.4-1.7-2.5-4.2-2.5-6.7
		c0-9.2,0-18.3,0-27.5c0-50.2,0-100.4,0-150.5c0-13.6-1.3-14.9-14.8-14.9c-20.5,0-41,0-61.4,0c-1.7,0-3.3,0-5,0.1
		c-7.2,0.4-9.3,2.5-9.7,9.9c-0.1,2.5-0.1,5-0.1,7.5c0,57.8,0,115.7,0,173.5c0,3.1,0.6,6.5-2.5,8.7c-61.7,0-123.3,0-185,0.1
		c-3.4,0-4.1-0.6-4.1-4.1c0.1-202.5,0.1-405,0-607.6c0-3.9,1.2-4.2,4.5-4.2c446.8,0.1,893.5,0.1,1340.3,0c4,0,4.5,1.2,4.5,4.7
		c-0.1,202.2-0.1,404.4,0,606.6c0.3,4.6-0.2,4.6-4.6,4.6c-23.8-0.2-47.7-0.1-71.5-0.1c-2.7-2-2.5-4.9-2.5-7.8c0-33.7,0-67.4,0-101.1
		c0-6.7,0.1-13.3,0-20c-0.2-9.4-2.3-11.6-11.5-11.7c-13.7-0.1-27.3-0.1-41,0c-9.2,0.1-11.4,2.3-11.4,11.7c-0.1,35.5,0,71.1,0,106.6
		c0,5.5,0,11,0,16.5C1207,612.2,1206.3,614.1,1204.5,615.6z"/>
	<path class="st1" d="M306.5,615.5c0-39.6,0-79.3,0.1-118.9c0-3.3-0.2-6.2-4.3-7.3c-3-0.8-2.3-3.6-2.1-5.9
		c2.6-22.3,18.5-41.4,40.3-47.4c5.6-1.5,7.8-4.2,7.2-9.8c-0.2-2,0-4,0-6c0-3.5,1.1-5.7,5.1-5.8c4-0.1,5.6,1.7,5.8,5.7
		c0.2,4.3-1.6,9.2,1.3,12.6c2.8,3.2,7.8,2.3,11.7,3.5c11.1,3.3,20,9.6,27.1,18.7c1.1,1.4,1.6,3.3,3.8,3.8c1.6-2.1,0.9-4.5,0.9-6.7
		c0.1-7.7,0-15.3,0-23c0-8.2,0.4-8.6,8.9-8.6c3.2,0,6.3-0.1,9.5,0c3.5,0,5.1-1.4,5-5.1c-0.1-13.5-0.1-27,0-40.5
		c0-2.1,0.1-4.3-2.4-4.9c-4.7-1.2-4.2-4.6-3.7-7.9c2.5-16,10.8-28.5,23.7-38c6.4-4.7,13.4-8.1,21.3-9.4c4.1-0.7,5.6-2.9,5.5-6.8
		c-0.1-5.7,0-11.3,0-17c0-3.4,1.5-5.3,5.1-5.3c3.6,0,5.1,1.9,5.1,5.3c0,5.3,0.3,10.7,0,16c-0.2,5,1.6,7.2,6.7,8.5
		c23,5.8,37.8,20.1,43.4,43.5c1.9,7.8,1.6,8.1-5.6,11.2c-2,0.9-2.6,2.5-2.6,4.4c0,13.8,0,27.7,0,41.5c0,3.1,1.8,4.5,4.8,4.5
		c4.3,0.1,8.7,0.1,13,0.1c3.5,0,5.2,1.7,5.2,5.2c0,2,0.1,4,0.1,6c0,61.3,0,122.6,0,183.9C466.5,615.5,386.5,615.5,306.5,615.5z"/>
	<path class="st2" d="M708.5,500.5c1.1-2.3,0.9-4.9,1-7.4c1.4-51.1,0.7-102.2,0.9-153.3c0.1-32.8,0.1-65.6,0.2-98.4
		c1.4-0.9,2.9-0.5,4.4-0.5c44.3,0,88.6,0,132.9-0.1c4.1,0,5.2,1.1,5.2,5.2c-0.2,39.5-0.1,79-0.1,118.4c0,2.7-0.6,5.4,2.1,7.6
		c1.5,1.2,0.9,3.7,0.9,5.7c0,11.8,0,23.7,0,35.5c0,64.3,0,128.6,0,192.9c0,3.3,0.6,6.8-2.5,9.2c-48,0-96,0-144,0
		c-1.9-1.6-2.5-3.7-2.5-6.2c0.1-34.8,0-69.5,0-104.3C707,503.4,706.9,501.7,708.5,500.5z"/>
	<path class="st3" d="M567.5,615.5c0-25.7,0.1-51.3,0.1-77c0-76.5,0-152.9,0-229.4c0-1.7,0-3.3,0-5c0.1-6.6,0.9-7.5,7.6-7.5
		c14-0.1,13.3,1.1,13.3-13.3c0-12.2,0-24.3,0-36.5c0-7.9,0.5-8.4,8.6-8.4c6.8,0,13.7-0.1,20.5,0c4.2,0.1,6-1.9,6-6.1
		c-0.1-6.8,0.1-13.7,0-20.5c0-4,1.5-6.3,5.9-6.2c4.4,0.1,5.1,2.8,5.1,6.4c0,6.2,0,12.3,0,18.5c0,7.3,0.6,7.8,8.1,7.9
		c7.7,0,15.3,0,23,0c6,0.1,6.9,1,6.9,7.1c0.1,14.5,0,29,0.1,43.5c0,6.8,0.8,7.5,7.4,7.6c0.8,0,1.7,0,2.5,0c7.4,0.1,7.9,0.6,7.9,8.1
		c0,57,0,114,0,170.9c0,3.3-0.3,6.7,1,9.9c1.4,3.3,1.5,6.7,1.5,10.3c-0.1,12.4,0,24.8-0.1,37.3c0,5.6,0.4,11.2,1,16.8
		c-1,2.1-1.1,4.4-1,6.7c0.1,6.3,0.2,12.5,0,18.8c-0.1,3,0.7,5.4,3.3,7c-4.3,8.9-3.2,18.5-3.3,27.9c0,2.2-0.9,3.8-2.5,5.2
		C649.5,615.5,608.5,615.5,567.5,615.5z"/>
	<path class="st4" d="M1007.6,267.6c44.6,0,89.3,0.1,133.9,0.1c1.1,1.7,0.5,3.6,0.5,5.4c0,40.1,0,80.3,0,120.4
		c0,2.6-0.4,5.2,2.1,7.3c1.2,1,0.7,3.1,0.9,4.8c0.7,7.4-1.8,14.5-1.8,21.7c-0.2,53.1-0.2,106.3,0,159.4c0,7.2,2.3,14.4,1.9,21.7
		c-0.2,3-0.8,5.5-3.5,7.1c-45,0-90,0-135,0c-1.8-1.5-2.6-3.4-2.5-5.8c0-1.2,0-2.3,0-3.5c0-89.5,0-179.1,0-268.6
		c0-3.3-0.5-6.7,2.4-9.2l0,0.1c1.1-1.5,0.5-3.2,0.5-4.8c0-17.1,0-34.2,0.1-51.2C1007,270.8,1006.5,269.1,1007.6,267.6z"/>
	<path class="st5" d="M922.6,329.4c10.2,0,20.5,0,30.7,0c9.8-0.8,19.6-0.2,29.4-0.3c2.6,0,4,1.4,4.1,4c0.2,11,0.7,22-0.2,33
		c-0.5,6.5-0.8,12.9-0.1,19.3c0.7,6.5-1.3,13-0.2,19.6c1.3,7.6-1.2,15.2,0,22.9c1.2,7.7-1.2,15.4-0.1,23.1
		c1.1,8.1-0.3,16.1-0.3,24.2c0,15.4,1.4,30.8,1,46.2c-0.2,7.5-1.6,15-0.9,22.5c2,21.3,0.4,42.7,0.9,64c0.1,2.9,0.1,5.7-2.5,7.8
		c-37.7,0-75.3,0-113,0c-1.8-1.5-2.4-3.4-2.5-5.8c0-4,0-8,0.1-11.9c-0.2-6.7-0.2-13.4,0-20.1c-0.2-4.4-0.2-8.8,0-13.2
		c-0.2-6.3-0.2-12.6,0-18.9c-0.2-4.7-0.2-9.4,0-14.1c-0.2-6-0.2-11.9,0-17.9c-0.2-4.7-0.2-9.4,0-14.1c-0.2-6.3-0.2-12.6,0-18.9
		c-0.2-4.7-0.1-9.4-0.2-14.1c0.1-6,0-11.9,0.2-17.9c-0.2-4.7-0.2-9.4,0-14.1c-0.2-6-0.2-11.9,0-17.9c-0.2-4.7-0.2-9.4,0-14.1
		c-0.2-6-0.1-12-0.2-18c0.2-8-0.1-16,0.2-24c-0.2-6.4-0.1-12.8,0-19.1c-0.1-1.7-0.2-3.3-0.1-5c0.4-8.3-0.7-7.5,8-8.3
		c14.1-1.4,28.1,0.6,42.2,0.3C920.6,328.2,921.5,328.8,922.6,329.4z"/>
	<path class="st6" d="M189.5,615.5c-0.1-2.5-0.3-5-0.3-7.5c0-62.4,0-124.9,0-187.3c0-6.8,0.1-6.9,7.1-6.9c27.3,0,54.6,0,81.9,0
		c7,0,7.3,0.4,7.3,7.4c0,64.8,0,129.5,0,194.3C253.5,615.5,221.5,615.5,189.5,615.5z"/>
	<path class="st7" d="M1204.5,615.5c0-45.8,0-91.6-0.1-137.4c0-3.9,1.3-5.7,5.5-5.7c19,0.1,38,0,57,0c5.9,0,6.7,0.8,6.7,6.7
		c0,45.5-0.1,90.9-0.1,136.4C1250.5,615.5,1227.5,615.5,1204.5,615.5z"/>
	<path class="st2" d="M984.5,615.5c0-91.7,0-183.4,0-275.1c0-10.9,0-10.8-10.7-10.9c-6.8,0-13.6-0.1-20.5-0.2c2.5-1,5.2-0.9,7.9-0.9
		c15.1,0,30.2,0,45.3-0.1c0,31.8,0.1,63.6,0.1,95.4c0,63.9,0,127.8,0,191.7C999.2,615.5,991.8,615.5,984.5,615.5z"/>
	<path class="st3" d="M922.6,329.4c-13.9,0-27.8,0.1-41.7,0.1c-9,0-9.2,0.2-9.4,9.1c0,1.3-0.1,2.6-0.1,4c-6,6.4-6,11.5,0,17.9
		c0,8,0.1,16,0.1,24.1c-6.2,4.6-6.2,11.9,0,18c0,4.7,0,9.4,0,14.1c-6,6.4-6,11.6-0.1,17.9c0,4.7,0,9.4,0.1,14.2
		c-6.1,6.5-6.1,13.4,0,17.9c0,4.7-0.1,9.4-0.1,14.1c-6,6.4-6,12.4,0,18.8c0,4.7,0.1,9.4,0.1,14.1c-6,6.4-6,11.6,0,18
		c0,4.7,0,9.4,0,14.1c-6,6.4-6.1,12.4-0.1,18.8c0,4.4,0,8.9,0,13.3c-6,6.4-6,13.2,0,19.7c0,6,0.1,12.1,0.1,18.1c-6,0-12,0-18,0
		c0-77.1,0.7-154.3-0.3-231.4c-0.6-44.8-0.3-89.6-0.7-134.4c-0.1-7.4-0.7-8.1-8.5-8.1c-44.5,0-89,0-133.4,0c2.4-1,4.9-0.9,7.4-0.9
		c42.3,0,84.6,0,126.9,0c8.3,0,8.6,0.3,8.6,8.8c0,37.5,0,74.9,0,112.4c0,2.1-0.6,4.3,0.8,6.4c1.7-1.8,1.1-3.9,1.1-5.7
		c0.1-9.7,0-19.3,0.1-29c0.1-5.9,1.2-6.9,7.1-7c4.2-0.1,8.3,0,12.5,0c7-0.1,8.2-1.3,8.3-8.1c0.1-3.7,0-7.3,0.1-11
		c0.1-3,0-6.5,4.3-6.4c4.3,0.1,4.2,3.4,4,6.6c-0.2,3.8-0.3,7.7-0.2,11.5c0.2,6,1.5,7.3,7.5,7.5c5.7,0.1,11.3,0.1,17,0.1
		C918.7,326.5,921.2,326.8,922.6,329.4z"/>
	<path class="st5" d="M1143.5,398.6c6.2-0.1,12.3,0,18.5-0.2c4.8-0.2,6.7,2,6.4,6.6c-0.1,2,0,4,0,6c0,65.2,0,130.4,0,195.6
		c0,3,0.1,6,0.2,9c-8.7,0-17.3,0-26,0c-1.1-7.9-0.2-15.8-0.5-23.7c-0.1-2.3,2-3.3,2.9-5c3.6-8.8,2.3-17.9,1.2-26.9
		c-0.2-1.7-1.2-3.5-3.1-4.3c-2-4.9-1.5-9.3,2.2-13.3c2.4-10.3,4.4-20.6-1.8-30.3c-1.7-1.8-1.6-3.9-0.8-6c2.9-2.1,4.3-5,4.4-8.5
		c0.2-5.8,0.3-11.6,0-17.4c-0.2-3.1-1.1-5.9-4-7.6c-1.8-4.9-1.4-9.3,2.3-13.2c3.2-8.7,2-17.5,0.9-26.3c-0.3-2.2-1.9-3.7-3.6-5.1
		c-0.9-9.2-0.3-18.4-0.4-27.5C1142.1,399.5,1142.7,398.9,1143.5,398.6z"/>
	<path class="st1" d="M692.5,550.3c-1.6-1.9-2-4.2-2-6.5c0-17.6,0-35.3,0-52.9c0-1.8,0.6-3.6,0.9-5.4c7.3,3.2,12,9.3,17,15.1
		c1.1,3.2,1,6.5,1,9.9c0,35,0,70.1,0,105.1c-6.3,0-12.7,0-19,0c0-8.6,0.1-17.2,0-25.7c0-3.2,0.9-5.8,3.9-7.4c-1.6-2-1.3-4.4-1.4-6.7
		C692.9,567.2,693.4,558.7,692.5,550.3z"/>
	<path class="st8" d="M1149.4,462.2c-7.3,3-7.4,3.2-5.8,9.3c0.7,1,1.2,2,1.2,3.2c0.2,9.5,0.3,19,0,28.5c0,1.2-0.6,2.2-1.3,3.2
		c-0.7,1.7-0.4,3,1.1,4.2c1.2,1.5,0.7,3.1,0.6,4.8c-0.4,6.6-0.3,13.3-0.2,19.9c0.1,3.9,1.2,7.4,4.3,10c-7.4,2.9-7.6,3.2-5.6,9.4
		c1.3,1.9,1.2,4.1,1.2,6.3c0,6-0.1,12,0.1,17.9c0.1,4,1,7.6,4.3,10.3c-5.9,1.1-7.3,5.1-6.9,10.5c0.3,5.2,0.1,10.5,0.1,15.8
		c-0.3,0-0.7,0-1,0c0-115.9,0-231.9,0-347.8c1.4,2.5,1,5.2,1,7.8c0,38.2,0,76.5,0,114.7c0,2.8-0.4,5.7,1,8.3
		c-1.4,9.7-1.8,19.4,0.2,29.1c1.4,1.9,1.3,4,1.3,6.1c0,6.1-0.1,12.2,0.1,18.3C1145.2,456,1146.1,459.6,1149.4,462.2z"/>
	<path class="st2" d="M1007.6,267.6c0,17.5-0.1,35.1-0.1,52.6c0,2.8,0.2,5.6-1,8.3c0-18.2,0-36.4,0-54.7
		C1006.4,271.7,1006.2,269.5,1007.6,267.6z"/>
	<path class="st9" d="M479.6,469.7c0,5,0,10,0,14.9c0,3.2-0.8,5.6-4.6,5.6c-3.6,0-4.4-2.4-4.4-5.3c0-10.1,0-20.3,0-30.4
		c0-3.2,0.8-5.6,4.7-5.6c4,0,4.3,2.8,4.3,5.8C479.6,459.7,479.6,464.7,479.6,469.7z"/>
	<path class="st9" d="M453.3,470c0,5.1,0,10.3,0,15.4c0,2.9-1.2,4.8-4.4,4.8c-3.2,0-4.5-1.8-4.5-4.7c0-10.6,0-21.2,0-31.8
		c0-2.9,1.2-4.7,4.4-4.8c3.2,0,4.5,1.7,4.5,4.7C453.3,459.1,453.3,464.5,453.3,470z"/>
	<path class="st9" d="M505.7,469.5c0,5.2,0,10.3,0,15.5c0,3.1-1,5.2-4.5,5.2c-3.6,0-4.4-2.4-4.4-5.4c0-10.3,0-20.7,0-31
		c0-2.9,1-4.9,4.3-5c3.5-0.1,4.7,2,4.6,5.1C505.7,459.2,505.7,464.3,505.7,469.5z"/>
	<path class="st9" d="M470.6,542.5c0-5,0-10,0-14.9c0-3.1,1.1-5.1,4.7-5c3.3,0.1,4.3,2.1,4.3,5c0,10.3,0,20.6,0,30.9
		c0,3.1-1.2,5.1-4.7,5c-3.3-0.1-4.2-2.1-4.3-4.9C470.6,553.1,470.6,547.8,470.6,542.5z"/>
	<path class="st9" d="M453.3,543.4c0,5,0,10,0,14.9c0,2.8-0.8,4.9-4.2,5c-3.4,0.1-4.8-1.8-4.8-5c0-10.3,0-20.6,0-30.9
		c0-3.1,1.2-5.1,4.7-5c3.3,0.1,4.2,2.2,4.2,5C453.3,532.8,453.3,538.1,453.3,543.4z"/>
	<path class="st9" d="M385.4,543.5c0,5,0,10,0,14.9c0,2.8-0.9,4.9-4.2,5c-3.5,0.1-4.7-1.9-4.7-5c0-10.3,0-20.6,0-30.9
		c0-3.1,1.2-5.1,4.7-5c3.3,0.1,4.2,2.2,4.2,5C385.5,532.8,385.4,538.1,385.4,543.5z"/>
	<path class="st9" d="M332.5,543.2c0,5.1,0,10.3,0,15.4c0,2.9-1.2,4.7-4.4,4.7c-3.2,0-4.4-1.8-4.4-4.7c0-10.5,0-20.9,0-31.4
		c0-2.9,1.2-4.8,4.4-4.8c3.2,0,4.4,1.8,4.4,4.8C332.5,532.6,332.5,537.9,332.5,543.2z"/>
	<path class="st9" d="M470.6,395.9c0-5,0-10,0-15c0-3.1,1-5.2,4.6-5.2c3.2,0,4.4,1.9,4.4,4.8c0,10.3,0,20.7,0,31
		c0,2.8-1,4.9-4.3,4.9c-3.6,0.1-4.6-2-4.6-5.1C470.6,406.2,470.6,401,470.6,395.9z"/>
	<path class="st9" d="M453.3,396.5c0,5,0,10,0,15c0,2.8-0.8,5-4.2,5c-3.5,0.1-4.7-1.9-4.7-5c0-10.3,0-20.7,0-31c0-3,1.3-4.7,4.5-4.8
		c3.3,0,4.4,1.9,4.4,4.8C453.3,385.8,453.3,391.1,453.3,396.5z"/>
	<path class="st9" d="M359.3,542.9c0,5.1,0,10.3,0,15.4c0,3.1-1.1,5.2-4.6,5.1c-3.3-0.1-4.2-2.1-4.3-4.9c0-10.3,0-20.6,0-30.9
		c0-3.1,1.1-5.1,4.6-5.1c3.3,0.1,4.2,2.1,4.2,4.9C359.4,532.6,359.3,537.7,359.3,542.9z"/>
	<path class="st9" d="M505.7,396.1c0,5,0,10,0,15c0,2.9-0.7,5.3-4.4,5.4c-3.6,0.1-4.5-2.2-4.6-5.2c0-10.1,0-20.3,0-30.4
		c0-3,1-5.2,4.6-5.2c3.6,0.1,4.3,2.5,4.3,5.4C505.7,386.1,505.7,391.1,505.7,396.1z"/>
	<path class="st9" d="M496.8,542.5c0-5,0-10,0-15c0-2.8,0.8-5,4.2-5c3.5-0.1,4.7,2,4.7,5.1c0,10.3,0,20.7,0,31
		c0,2.9-1.2,4.8-4.5,4.8c-3.3,0-4.4-2-4.4-4.8C496.7,553.2,496.8,547.9,496.8,542.5C496.8,542.5,496.8,542.5,496.8,542.5z"/>
	<path class="st9" d="M732.7,428.5c-1.7,0-3.3,0-5,0c-3.3,0.1-4.9-1.6-4.9-4.8c0-0.3,0-0.7,0-1c0.1-16.7-1.9-15.1,15.8-15
		c3.2,0,5,1.5,5,4.9c0,1.7,0.1,3.3,0.1,5C743.6,428.5,743.6,428.5,732.7,428.5z"/>
	<path class="st9" d="M732.7,516.5c-0.7,0-1.3,0-2,0c-7.5,0-7.9-0.4-7.9-7.9c-0.1-13.1-0.1-13.1,12.9-13c7.4,0.1,7.9,0.5,7.9,8
		c0,0.7,0,1.3,0,2C743.6,516.5,743.6,516.5,732.7,516.5z"/>
	<path class="st9" d="M743.6,330.3c0,1.3-0.1,2.7,0,4c0.3,4.4-1.6,6.6-6.1,6.3c-0.3,0-0.7,0-1,0c-13.9,0.2-16.5-3.1-13.6-17.1
		c0.5-2.6,2-3.7,4.5-3.7c3-0.1,6-0.1,9-0.1c6.5,0.1,7.2,0.7,7.3,7.1C743.6,328,743.6,329.1,743.6,330.3z"/>
	<path class="st9" d="M743.6,477.2c0,1.5-0.1,3,0,4.5c0.2,4.1-1.8,5.8-5.8,5.7c-0.2,0-0.3,0-0.5,0c-14.9,0.6-16.7-1.5-14.5-16.3
		c0.4-2.7,1.6-4.3,4.5-4.3c3.2,0,6.3-0.1,9.5-0.1c6,0.1,6.7,0.8,6.8,6.6C743.6,474.5,743.6,475.8,743.6,477.2
		C743.6,477.2,743.6,477.2,743.6,477.2z"/>
	<path class="st9" d="M743.6,301.5c0,1.7,0,3.3,0,5c0,3.3-1.8,4.9-5,4.9c-3.7,0-7.3,0-11,0c-0.5,0-1.1,0-1.5-0.2
		c-6.4-4-2.4-10.2-3.2-15.4c-0.5-3.1,1.3-5.1,4.7-5.1c1.7,0,3.3-0.1,5-0.1C743.6,290.6,743.6,290.6,743.6,301.5z"/>
	<path class="st9" d="M733,399.3c-1.5,0-3-0.1-4.5,0c-4,0.2-5.6-1.7-5.8-5.7c-0.8-15.2-0.3-15.7,14.9-15.1c4.2,0.1,6.2,1.7,6,6
		c-0.1,1.3,0,2.7,0,4C743.6,399.4,743.6,399.4,733,399.3z"/>
	<path class="st9" d="M805.5,418.2c0,1.2,0,2.3,0,3.5c-0.1,6-0.7,6.7-6.6,6.8c-11.3,0.3-11.3,0.3-11.3-11.1c0-1.5,0-3,0.1-4.5
		c0.1-1-0.1-2.3,0.5-2.9c3.8-4.4,9-2,13.5-2.2c3.3-0.1,3.8,2.6,3.8,5.3C805.4,414.9,805.4,416.6,805.5,418.2
		C805.4,418.2,805.5,418.2,805.5,418.2z"/>
	<path class="st9" d="M787.6,505.9c0-1.3,0.1-2.7,0-4c-0.3-4.4,1.7-6.2,6.2-6.3c11.7-0.2,11.8-0.3,11.7,11.2c0,1.5,0,3-0.1,4.5
		c-0.1,1,0.1,2.3-0.5,2.9c-3.9,4.4-9,2-13.6,2.1c-3.3,0.1-3.7-2.8-3.7-5.4C787.6,509.2,787.6,507.5,787.6,505.9
		C787.6,505.9,787.6,505.9,787.6,505.9z"/>
	<path class="st9" d="M773.2,418.4c0,1.5,0,3,0,4.5c0.1,3.9-1.6,5.6-5.7,5.7c-12.1,0.4-12.2,0.5-12-11.7c0-3-1.5-7,2.2-8.5
		c4.2-1.6,8.8-1.2,13.2-0.1c1.6,0.4,2.1,2.1,2.1,3.6c0.1,2.2,0,4.3,0,6.5C773.2,418.4,773.2,418.4,773.2,418.4z"/>
	<path class="st9" d="M805.4,477.4c0,1.7,0,3.3,0,5c0.1,3.3-1.7,4.6-4.9,4.9c-12.1,1.1-13.1,0.3-12.9-11.4c0-3-1.4-7.1,2.1-8.6
		c4.3-1.7,9.1-1.3,13.7-0.1c1.6,0.4,2,2.1,2,3.7C805.4,473.1,805.4,475.3,805.4,477.4C805.4,477.4,805.4,477.4,805.4,477.4z"/>
	<path class="st9" d="M755.5,505.6c0-1.7,0-3.3,0-5c0-3.3,1.6-4.7,4.8-5c12.1-1.1,13-0.4,12.9,12c0,2.9,1.2,6.8-2,8.1
		c-4.3,1.7-9.1,1.3-13.6,0.1c-1.6-0.4-1.9-2.2-1.9-3.7C755.5,509.9,755.6,507.7,755.5,505.6C755.5,505.6,755.5,505.6,755.5,505.6z"
		/>
	<path class="st9" d="M755.5,329.7c0-1.7,0-3.3,0-5c0-3.3,1.5-4.9,4.8-5c14.5-0.4,12.9-0.2,12.9,11.8c0,2.9,1.2,6.8-2,8.1
		c-4.3,1.8-9.1,1.3-13.6,0.1c-1.6-0.4-2-2.1-2-3.7C755.5,334,755.6,331.8,755.5,329.7C755.6,329.7,755.5,329.7,755.5,329.7z"/>
	<path class="st9" d="M805.4,330.5c0,1.5,0,3,0,4.5c0.1,3.7-1.5,5.4-5.3,5.6c-12.4,0.7-12.7,0.5-12.6-12.3c0-2.8-1.2-6.8,2.5-7.9
		c4.4-1.3,9.2-1.4,13.7,0.2c1.3,0.5,1.6,2,1.6,3.4C805.4,326.2,805.4,328.3,805.4,330.5C805.4,330.5,805.4,330.5,805.4,330.5z"/>
	<path class="st9" d="M773.2,389.2c0,1.5,0,3,0,4.5c0.1,4-1.8,5.6-5.7,5.7c-11.8,0.5-12,0.4-12-11.4c0-1.8,0-3.7,0.1-5.5
		c0.1-2.1,1.2-3.6,3.3-3.7c3.5-0.2,7-0.2,10.5-0.1c2.4,0.1,3.6,1.7,3.7,3.9c0.1,2.2,0,4.3,0,6.5
		C773.1,389.2,773.2,389.2,773.2,389.2z"/>
	<path class="st9" d="M755.6,301c-0.1-9.7,5.6-13.5,14.8-10c1.8,0.7,2.6,2,2.7,3.8c0.1,1.8,0.2,3.7,0.2,5.5c0,10.9-3.5,13.6-14.3,11
		c-2.1-0.5-3.3-1.6-3.3-3.7C755.5,305.3,755.6,303.1,755.6,301z"/>
	<path class="st10" d="M773.2,446.9c0,2.6,0,4.2,0,5.9c0,3.3-1.7,4.6-5,4.9c-12.2,0.9-12.9,0.4-12.7-12.2c0-2.7-1-6.4,2.4-7.4
		c4.4-1.3,9.5-2,13.6,0.4C774.7,440.4,772.8,444.6,773.2,446.9z"/>
	<path class="st10" d="M805.4,358.7c0,2.5,0,4.2,0,5.9c0,3.5-1.8,4.9-5.2,5.1c-12.2,0.8-12.7,0.4-12.6-11.7c0-2.8-1.2-6.8,2.4-7.9
		c4.4-1.4,9.4-1.8,13.6,0.3C807.1,352.2,804.8,356.5,805.4,358.7z"/>
	<path class="st9" d="M755.5,359.1c0-1.5,0-3,0-4.5c0-0.8-0.1-1.8,0.4-2.4c3.3-5.1,8.4-2.2,12.7-2.7c3.1-0.3,4.5,1.7,4.6,4.6
		c0,1.5,0.1,3,0.1,4.5c0,11.3-0.1,11.3-11.4,11.1c-4.7-0.1-6.8-1.9-6.4-6.6C755.6,361.8,755.5,360.5,755.5,359.1
		C755.5,359.1,755.5,359.1,755.5,359.1z"/>
	<path class="st10" d="M805.4,446.8c0,2.4,0,4.1,0,5.7c0,3.2-1.4,5-4.8,5.1c-14.5,0.3-13.1,0.3-13-11.8c0-2.8-1.1-6.8,2.6-7.8
		c4.4-1.1,9.5-1.9,13.6,0.6C806.8,440.4,805,444.5,805.4,446.8z"/>
	<path class="st9" d="M817.3,300.7c0-1.5,0-3,0-4.5c-0.1-4,1.9-5.5,5.8-5.6c11.1-0.4,11.5-0.2,11.4,11c0,1.5-0.1,3,0,4.5
		c0.1,3.8-1.8,5.5-5.5,5.3c-0.2,0-0.3,0-0.5,0C817.7,311.8,817.3,311.5,817.3,300.7z"/>
	<path class="st9" d="M834.4,330.2c0.1,9.9-4.3,13.1-13.9,10.1c-2.1-0.6-3-2-3.1-4c-0.1-2-0.1-4-0.1-6c0-10.3,3.8-13.1,13.9-10.4
		c2.1,0.5,3.2,1.7,3.3,3.8C834.5,325.9,834.4,328,834.4,330.2z"/>
	<path class="st9" d="M834.5,389.3c0,1.5,0,3,0,4.5c0.1,3.7-1.6,5.3-5.3,5.6c-11.3,0.7-12,0.2-11.9-11c0-1.7,0-3.3,0.1-5
		c0.1-3,1.5-4.6,4.6-4.7c0.5,0,1,0,1.5-0.1C834.3,378.1,834.6,378.4,834.5,389.3z"/>
	<path class="st9" d="M834.6,506.3c0,1.3-0.1,2.7,0,4c0.3,4.5-1.8,6.2-6.2,6.3c-10.9,0.2-11.1,0.1-11-11c0-1.7,0.1-3.3,0.1-5
		c0-3.3,1.7-4.9,5-4.9c0.3,0,0.7,0,1,0C834.2,495.1,834.6,495.5,834.6,506.3z"/>
	<path class="st9" d="M817.3,417.9c0-9.7,4.8-13,14.2-10c2.1,0.7,2.9,2.1,3,4.1c0.1,2.3,0.1,4.7,0.1,7c0,9.4-0.2,9.6-9.4,9.5
		c-7.2-0.1-7.7-0.6-7.8-7.6C817.3,419.9,817.3,418.9,817.3,417.9z"/>
	<path class="st9" d="M834.5,477.3c0,1.5,0,3,0,4.5c0.1,3.7-1.6,5.3-5.3,5.6c-11.2,0.7-12,0.1-11.9-11c0-1.7,0-3.3,0.1-5
		c0.1-3,1.5-4.6,4.6-4.7c0.5,0,1,0,1.5-0.1C834.3,466.1,834.6,466.4,834.5,477.3z"/>
	<path class="st10" d="M834.5,447.9c0,1.7,0,3.3,0,5c-0.1,3-1.5,4.8-4.5,4.7c-4-0.2-9.3,2.1-11.5-1.9c-2.6-4.6-1.3-10.3-0.5-15.6
		c0.2-1.4,1.5-2.1,2.9-2.4c1-0.1,2-0.2,3-0.2C834.3,437,834.6,437.3,834.5,447.9z"/>
	<path class="st10" d="M834.5,359.9c0,1.7,0,3.3,0,5c-0.1,3-1.6,4.8-4.6,4.6c-4-0.2-9.3,2.1-11.5-2c-2.5-4.6-1.3-10.3-0.5-15.6
		c0.2-1.4,1.5-2.1,2.9-2.3c1-0.1,2-0.2,3-0.2C834.3,349,834.6,349.3,834.5,359.9z"/>
	<path class="st9" d="M611.5,270.5c0,1.8-0.1,3.7,0,5.5c0.2,3.9-1.1,6.3-5.6,6.4c-4.3,0-6.6-1.6-6.4-6.1c0.1-4,0.1-8,0-11.9
		c-0.1-4.3,2-5.9,6.1-5.9c4.3,0,6,2,5.9,6.1C611.5,266.5,611.5,268.5,611.5,270.5z"/>
	<path class="st9" d="M658.6,569.6c0,1.8-0.1,3.7,0,5.5c0.2,4-1.2,6.3-5.6,6.3c-4.4,0-6.5-1.7-6.4-6.2c0.1-4.3,0-8.6,0.1-12.9
		c0-3.7,2.2-4.8,5.6-4.8c3.3,0,6.1,0.5,6.2,4.6C658.5,564.6,658.5,567.1,658.6,569.6C658.5,569.6,658.5,569.6,658.6,569.6z"/>
	<path class="st9" d="M635.3,270.9c0,1.7-0.1,3.3,0,5c0.2,4.2-1.4,6.5-6,6.5c-4.6,0-6.1-2.3-6-6.5c0.1-4.1,0-8.3,0.1-12.4
		c0-3.9,2.5-5,5.9-5c3.5,0,5.9,1,5.9,5C635.3,265.9,635.3,268.4,635.3,270.9C635.3,270.9,635.3,270.9,635.3,270.9z"/>
	<path class="st9" d="M658.6,270.7c0,1.7-0.1,3.3,0,5c0.2,4.1-1.1,6.6-5.8,6.7c-5,0.1-6.3-2.5-6.2-6.9c0.1-4,0.1-8,0.1-11.9
		c0-3.9,2.2-5.1,5.8-5.1c3.7,0,6.2,1.1,6.1,5.3C658.5,266.1,658.5,268.4,658.6,270.7C658.5,270.7,658.6,270.7,658.6,270.7z"/>
	<path class="st9" d="M611.5,569.5c0,1.8-0.1,3.7,0,5.5c0.2,3.9-1.1,6.3-5.6,6.4c-4.3,0-6.6-1.6-6.4-6.1c0.1-4,0.1-8,0-12
		c-0.1-4.3,2-5.9,6.1-5.8c3.9,0,5.9,1.6,5.8,5.6C611.5,565.2,611.5,567.4,611.5,569.5C611.5,569.5,611.5,569.5,611.5,569.5z"/>
	<path class="st9" d="M635.3,569.6c0,1.8-0.1,3.7,0,5.5c0.2,4.4-1.8,6.3-6.3,6.3c-4.4-0.1-5.8-2.3-5.7-6.3c0.1-4.3,0-8.6,0.1-12.9
		c0.1-4.1,2.8-4.7,6.2-4.7c3.3,0,5.5,1,5.6,4.7C635.3,564.7,635.3,567.2,635.3,569.6C635.3,569.6,635.3,569.6,635.3,569.6z"/>
	<path class="st9" d="M658.6,446.3c0,1.8-0.1,3.6,0,5.5c0.2,4.2-1.3,6.6-5.9,6.6c-4.6,0-6.2-2.2-6.1-6.5c0.1-4.1,0-8.3,0.1-12.4
		c0-3.9,2.3-5,5.9-5c3.4,0,5.9,0.9,6,4.9C658.5,441.6,658.5,443.9,658.6,446.3C658.5,446.3,658.5,446.3,658.6,446.3z"/>
	<path class="st10" d="M599.6,446.5c0-1.8,0.1-3.7,0-5.5c-0.2-4.1,1.1-6.6,5.9-6.6c4.6,0,6.3,2.1,6.1,6.4c-0.1,3.7-0.1,7.3,0,11
		c0.2,5.2-3,5.9-7.1,6c-4.3,0.1-4.9-2.4-4.9-5.8C599.6,450.2,599.6,448.4,599.6,446.5z"/>
	<path class="st10" d="M635.3,446.3c0,1.7,0,3.3,0,5c0.1,3.6-0.2,6.6-5.2,6.5c-4.4-0.1-7-1.5-6.8-6.4c0.2-4,0-8,0.1-11.9
		c0-3.9,2.4-5,5.9-5c3.5,0,5.9,1,5.9,4.9C635.3,441.7,635.3,444,635.3,446.3C635.3,446.3,635.3,446.3,635.3,446.3z"/>
	<path class="st9" d="M646.6,363.5c0-1.5,0-3,0-4.5c-0.1-3.8,0.1-7,5.4-6.7c5.3,0.3,6.4,1.2,6.5,7c0.1,3.7,0,7.3,0,11
		c0,4.2-2.4,5.4-6.1,5.3c-3.6,0-5.8-1.3-5.8-5.1C646.6,368.1,646.6,365.8,646.6,363.5C646.6,363.5,646.6,363.5,646.6,363.5z"/>
	<path class="st10" d="M635.3,363.9c0,1.8,0,3.7,0,5.5c0.1,3.9-1.2,6.2-5.7,6.3c-4.5,0-6.4-1.9-6.3-6.3c0.1-4,0-8,0.1-11.9
		c0.1-4.7,3.3-5,6.9-5.1c3.8-0.2,5.1,1.7,5,5.1C635.3,359.5,635.3,361.7,635.3,363.9z"/>
	<path class="st10" d="M599.6,404.8c0-1.7,0.1-3.3,0-5c-0.2-4.3,1.5-6.4,6.1-6.4c4.3,0.1,6,2,5.9,6.1c-0.1,3.7-0.1,7.3,0,11
		c0.1,4.1-1.6,6.1-5.9,6.1c-4.6,0.1-6.3-2-6.1-6.4C599.7,408.4,599.6,406.6,599.6,404.8z"/>
	<path class="st10" d="M611.5,487.4c0,1.7-0.1,3.3,0,5c0.2,4.4-1.7,6.3-6.2,6.3c-4.4,0-5.9-2.2-5.8-6.2c0.1-4,0-8,0.1-12
		c0-3.9,2.4-5,5.9-5c3.5,0,5.9,1,5.9,5C611.5,482.7,611.5,485,611.5,487.4C611.5,487.4,611.5,487.4,611.5,487.4z"/>
	<path class="st10" d="M623.4,486.7c0-1.7,0.1-3.3,0-5c-0.2-4.3,1.6-6.4,6.2-6.4c4.4,0,5.9,2.2,5.8,6.2c-0.1,4.1,0,8.3-0.1,12.4
		c-0.1,3.7-2.5,4.6-5.8,4.6c-3.1,0-5.8-0.6-5.9-4.4c-0.1-2.5,0-5,0-7.5C623.5,486.7,623.4,486.7,623.4,486.7z"/>
	<path class="st9" d="M658.6,487.3c0,1.7-0.1,3.3,0,5c0.2,4.3-1.6,6.4-6.1,6.4c-4.4,0-5.9-2.1-5.9-6.2c0.1-3.7,0.1-7.3,0-11
		c-0.1-4.1,1.5-6.1,5.9-6.2c4.6,0,6.3,2.1,6.1,6.4C658.5,483.6,658.6,485.4,658.6,487.3z"/>
	<path class="st10" d="M611.5,363.9c0,1.7-0.1,3.3,0,5c0.2,4.1-1,6.6-5.8,6.7c-5,0.1-6.3-2.5-6.2-6.9c0.1-3.8,0-7.6,0.1-11.5
		c0-4,2.5-4.9,6-4.9c3.5,0,5.9,1.1,5.9,5.1C611.5,359.6,611.5,361.8,611.5,363.9C611.5,363.9,611.5,363.9,611.5,363.9z"/>
	<path class="st9" d="M635.3,528c0,1.7,0,3.3,0,5c0.1,4-1,6.7-5.8,6.7c-5,0-6.3-2.5-6.2-6.9c0.1-3.5,0.1-7,0-10.4
		c-0.1-4.2,2-5.9,6.1-5.9c4.4,0,6,2,5.9,6.1C635.3,524.4,635.3,526.2,635.3,528C635.3,528,635.3,528,635.3,528z"/>
	<path class="st9" d="M658.6,528.3c0,1.7-0.1,3.3,0,5c0.2,4.3-1.6,6.4-6.2,6.4c-4.4,0-5.9-2.1-5.8-6.2c0.1-4,0-8,0.1-11.9
		c0-3.9,2.3-5.1,5.8-5.1c3.4,0,6,0.8,6,4.9C658.5,523.7,658.5,526,658.6,528.3C658.5,528.3,658.5,528.3,658.6,528.3z"/>
	<path class="st9" d="M646.6,322.9c0-1.7,0.1-3.3,0-5c-0.2-4.2,1.2-6.6,6-6.6c4.6,0,6.2,2.3,6,6.5c-0.1,4,0,8-0.1,12
		c-0.1,4.1-2.8,4.8-6.1,4.8c-3.3,0-5.6-1-5.7-4.7C646.6,327.5,646.7,325.2,646.6,322.9C646.6,322.9,646.6,322.9,646.6,322.9z"/>
	<path class="st9" d="M623.4,322.7c0-1.7,0.1-3.3,0-5c-0.2-4.3,1.7-6.4,6.2-6.4c4.4,0,5.9,2.2,5.8,6.2c-0.1,4,0,8-0.1,12
		c0,3.9-2.3,5.1-5.8,5.1c-3.4,0-5.9-1-6-4.9C623.4,327.3,623.4,325,623.4,322.7C623.4,322.7,623.4,322.7,623.4,322.7z"/>
	<path class="st10" d="M611.5,323.3c0,1.7-0.1,3.3,0,5c0.2,4.4-1.6,6.4-6.2,6.4c-4.4,0-5.9-2.1-5.8-6.2c0.1-4,0-8,0.1-12
		c0-3.9,2.3-5.1,5.8-5.1c3.4,0,6,0.9,6,4.9C611.5,318.6,611.5,320.9,611.5,323.3C611.5,323.3,611.5,323.3,611.5,323.3z"/>
	<path class="st11" d="M658.6,405.2c0,1.7-0.1,3.3,0,5c0.2,4.3-1.5,6.4-6.1,6.4c-4.7,0-6-2.4-5.9-6.6c0.1-4,0-8,0.1-11.9
		c0.1-3.7,2.4-4.7,5.7-4.7c3.4,0,6,0.7,6.1,4.8C658.5,400.5,658.5,402.9,658.6,405.2C658.5,405.2,658.5,405.2,658.6,405.2z"/>
	<path class="st9" d="M623.4,405.2c0-1.8,0.1-3.7,0-5.5c-0.2-4.4,1.7-6.3,6.2-6.3c4.4,0,5.9,2.2,5.8,6.2c-0.1,4,0,8-0.1,11.9
		c0,3.9-2.3,5.1-5.8,5c-3.4,0-5.9-1-6-4.9C623.4,409.5,623.4,407.3,623.4,405.2C623.4,405.2,623.4,405.2,623.4,405.2z"/>
	<path class="st10" d="M611.5,528.1c0,1.7-0.1,3.3,0,5c0.2,4.2-1.2,6.6-5.9,6.6c-4.6,0-6.2-2.2-6.1-6.4c0.1-4,0-8,0.1-11.9
		c0-3.7,2.3-4.8,5.6-4.8c3.3,0,6.1,0.5,6.2,4.6C611.5,523.4,611.5,525.7,611.5,528.1C611.5,528.1,611.5,528.1,611.5,528.1z"/>
	<path class="st12" d="M692.5,550.3c1.5,0.9,2.6,2.3,2.6,4c0.1,9.4,1.2,18.7-0.7,28c-2.4-0.1-3.7-1.5-3.7-3.8
		c-0.1-8.1,0-16.2,0-24.3C690.7,552.7,691.4,551.4,692.5,550.3z"/>
	<path class="st9" d="M1031.4,402.2c0,7-0.1,14,0,21c0.1,3.8-1.4,5.6-5.3,5.3c-1.5-0.1-3-0.1-4.5,0c-3.6,0.2-5.1-1.4-5.1-5
		c0.1-14.2,0.1-28.3,0-42.5c0-3.8,1.5-5.6,5.3-5.4c1.5,0.1,3,0.1,4.5,0c3.6-0.2,5.1,1.5,5.1,5.1
		C1031.4,387.9,1031.4,395.1,1031.4,402.2z"/>
	<path class="st9" d="M1066.5,401.7c0-6.8,0.1-13.7,0-20.5c-0.1-4,1.5-5.6,5.6-5.7c8.9-0.1,9.3,0.1,9.3,9c0,12.7-0.2,25.3,0.1,38
		c0.1,5.5-2.7,6.3-7.2,6.1c-7.2-0.2-7.6-0.3-7.7-5.9C1066.4,415.7,1066.5,408.7,1066.5,401.7z"/>
	<path class="st10" d="M1016.6,467c0-6.8,0.2-13.7-0.1-20.5c-0.2-4.8,1.8-6.7,6.5-6.3c1.3,0.1,2.7,0.1,4,0.1c2.8,0,4.4,1.2,4.4,4.2
		c0,14.6,0,29.3,0,43.9c0,2.9-1.4,4.3-4.3,4.3c-0.5,0-1,0-1.5,0.1c-9,0.3-9,0.3-9.1-8.8C1016.6,478.3,1016.6,472.7,1016.6,467z"/>
	<path class="st9" d="M1131.3,466.9c0,6.5,0,13,0,19.5c-0.1,6-0.7,6.4-7.3,6.4c-6.8,0-7.5-0.5-7.5-6.2c-0.1-13.5,0.1-27-0.1-40.5
		c0-4.2,1.5-5.9,5.8-6c8.8,0,9,0,9.1,8.7C1131.4,454.9,1131.3,460.9,1131.3,466.9z"/>
	<path class="st10" d="M1031.4,337.3c0,7-0.1,14,0,20.9c0.1,4-1.5,5.6-5.6,5.7c-8.9,0.2-9.3,0-9.3-8.9c0-11.6,0-23.3,0-34.9
		c0-8.6,0.2-8.8,7.3-8.9c7.3,0,7.5,0.2,7.6,8.6C1031.5,325.6,1031.5,331.4,1031.4,337.3C1031.4,337.3,1031.4,337.3,1031.4,337.3z"/>
	<path class="st9" d="M1131.3,337.5c0,7-0.2,14,0,20.9c0.2,6-3.9,5.4-7.8,5.5c-4,0.1-7.2-0.2-7.1-5.6c0.2-13.8,0.2-27.6,0-41.4
		c-0.1-5.9,3.5-5.6,7.6-5.7c4.2-0.1,7.6,0.2,7.4,5.9C1131.1,323.8,1131.3,330.7,1131.3,337.5z"/>
	<path class="st9" d="M1066.5,466.4c0-6.8,0.1-13.7,0-20.5c-0.1-4,1.4-6,5.5-5.7c1.7,0.1,3.3,0.1,5,0.1c2.9,0,4.3,1.5,4.3,4.3
		c0,14.6,0,29.3,0,43.9c0,2.9-1.6,4.2-4.4,4.2c-1.8,0-3.7,0-5.5,0c-3.4,0.1-4.8-1.5-4.8-4.9C1066.6,480.8,1066.5,473.6,1066.5,466.4
		C1066.5,466.4,1066.5,466.4,1066.5,466.4z"/>
	<path class="st9" d="M1016.6,529.5c0-6.3,0.2-12.6-0.1-18.9c-0.2-4.6,1.8-6.4,6.2-6c1.5,0.1,3,0.1,4.5,0.1c2.9,0,4.2,1.5,4.2,4.3
		c0,13.8,0,27.6,0,41.3c0,2.9-1.5,4.2-4.3,4.2c-0.5,0-1,0-1.5,0c-8.8,0.2-9,0.1-9-8.6C1016.6,540.4,1016.6,534.9,1016.6,529.5z"/>
	<path class="st9" d="M1066.5,529.1c0-6.5,0.1-13,0-19.5c-0.1-3.6,1.5-5.2,5.1-5c1.7,0.1,3.3,0.1,5,0c3.1-0.1,4.7,1.3,4.7,4.4
		c0,13.6,0,27.3,0,40.9c0,3.1-1.5,4.6-4.6,4.5c-1,0-2,0-3,0c-6.8,0-7.1-0.3-7.2-6.9C1066.5,541.4,1066.5,535.2,1066.5,529.1
		C1066.5,529.1,1066.5,529.1,1066.5,529.1z"/>
	<path class="st9" d="M1131.3,529.9c0,6.3-0.1,12.7,0,19c0.1,4-1.4,6-5.6,5.6c-1.7-0.1-3.3-0.1-5-0.1c-2.9,0-4.3-1.4-4.3-4.3
		c0-13.8,0-27.6,0-41.5c0-2.6,1.3-4,3.9-4.1c1.3,0,2.7-0.1,4-0.1c6.4,0,6.8,0.4,6.8,6.8C1131.4,517.6,1131.3,523.7,1131.3,529.9z"/>
	<path class="st9" d="M1104.7,402.5c0,6.8-0.1,13.6,0,20.5c0.1,3.9-1.3,5.7-5.5,5.7c-8.8,0.1-9,0-9-8.6c0-12.8,0.2-25.6-0.1-38.4
		c-0.1-5.7,3-6,7.3-6c4.2,0,7.6,0.2,7.3,6C1104.5,388.5,1104.7,395.5,1104.7,402.5z"/>
	<path class="st9" d="M1040.2,466.6c0-7,0.1-14,0-21c-0.1-6.1,4.1-5.2,7.9-5.4c4-0.2,6.7,0.5,6.7,5.6c-0.2,14-0.1,28,0,41.9
		c0,3.5-1.1,5.1-4.8,5.1c-9.7,0.2-9.7,0.4-9.7-9.3C1040.2,477.9,1040.2,472.3,1040.2,466.6C1040.2,466.6,1040.2,466.6,1040.2,466.6z
		"/>
	<path class="st9" d="M1039.8,311.5c18.4-0.9,14.5-0.7,14.8,13.6c0.2,10.8,0.1,21.6,0,32.5c0,5.8-0.7,6.3-6.9,6.3
		c-6.7,0-7.5-0.6-7.6-6.2c-0.1-12.5,0-25-0.1-37.5c0-2.7-0.3-5.3-0.5-8c-0.3-0.2-0.3-0.4-0.2-0.6
		C1039.6,311.5,1039.7,311.5,1039.8,311.5z"/>
	<path class="st9" d="M1090.2,337c0-6.8,0.1-13.6,0-20.5c-0.1-5.7,3.7-5.3,7.4-5.3c3.6,0,7.1-0.2,7.1,5.1c-0.1,14.1-0.1,28.3,0,42.4
		c0,5.8-4,5-7.6,5.1c-3.8,0.1-7-0.3-6.9-5.4C1090.4,351.3,1090.2,344.1,1090.2,337z"/>
	<path class="st9" d="M1104.7,529.7c0,6.5-0.1,13,0,19.4c0.1,3.8-1.4,5.3-5.3,5.4c-8.9,0.2-9.2,0.1-9.2-8.9c0-11.6,0-23.3,0-34.9
		c0-5.8,0.6-6,7.5-6.2c4.6-0.1,7.3,0.8,7,6.2C1104.5,517.1,1104.7,523.4,1104.7,529.7C1104.7,529.7,1104.7,529.7,1104.7,529.7z"/>
	<path class="st13" d="M1105.8,425.3c0-15.5,0-31,0-46.5c0.1,0,0.2,0,0.3,0c0,15.5,0,31,0,46.5
		C1106,425.3,1105.9,425.3,1105.8,425.3z"/>
	<path class="st13" d="M1106.4,314.9c0,15.1,0,30.2,0,45.2c-0.2,0-0.3,0-0.5,0c0-15.2,0-30.3,0-45.5
		C1106.1,314.8,1106.2,314.8,1106.4,314.9z"/>
	<path class="st13" d="M1038.7,489.3c0-15.2,0-30.4,0-45.6c0.1,0,0.3,0,0.4,0c0,15.2,0,30.4,0,45.6
		C1039,489.3,1038.9,489.3,1038.7,489.3z"/>
	<path class="st13" d="M1039.8,311.5c0,0.3-0.1,0.5-0.2,0.7c0,16,0,32.1,0,48.1c-0.3,0-0.6,0-0.9,0c0-15.2,0-30.4,0-45.6
		C1038.8,313.7,1039.5,312.6,1039.8,311.5z"/>
	<path class="st13" d="M1106.4,507.9c0,14.4,0,28.8,0,43.2c-0.2,0-0.3,0-0.5,0c0-14.5,0-28.9,0-43.4
		C1106.1,507.8,1106.2,507.8,1106.4,507.9z"/>
	<path class="st14" d="M951.8,388.5c0-5.6,0-11.3,0-16.9c0-3.2,1.4-4.9,4.8-4.8c3.2,0.1,4.4,1.8,4.4,4.7c0,11.6,0,23.3,0,34.9
		c0,3.4-1.4,4.8-4.9,4.7c-3.2-0.1-4.5-1.5-4.5-4.6C951.9,400.5,951.8,394.5,951.8,388.5z"/>
	<path class="st14" d="M961.1,550.5c0,5.6,0,11.3,0,16.9c0,3.3-1.5,4.9-4.9,4.8c-3.2-0.1-4.4-1.8-4.4-4.7c0-11.5,0-22.9,0-34.4
		c0-3.2,1.4-4.9,4.9-4.8c3.3,0.1,4.4,1.9,4.4,4.8C961.1,538.9,961.1,544.7,961.1,550.5z"/>
	<path class="st15" d="M961.1,444.6c0,5.6,0,11.3,0,16.9c0,3.1-1.1,5-4.6,5c-3.6,0-4.6-2-4.6-5.1c0-11.3,0-22.6,0-33.9
		c0-3.1,1.1-5,4.6-5c3.6,0,4.6,2,4.6,5.1C961.1,433.3,961.1,438.9,961.1,444.6z"/>
	<path class="st15" d="M961.1,494.4c0,5.7,0,11.3,0,17c0,3-0.9,5.1-4.6,5.1c-3.6,0-4.6-1.9-4.6-5c0-11.3,0-22.6,0-34
		c0-3,0.9-5.1,4.6-5.1c3.6,0,4.7,1.9,4.7,5C961.1,483.1,961.1,488.8,961.1,494.4C961.1,494.4,961.1,494.4,961.1,494.4z"/>
	<path class="st9" d="M931.6,444.1c0-5.7,0-11.3,0-17c0-2.8,1.1-4.4,4.1-4.5c3.1-0.1,4.7,1.3,4.7,4.4c0,11.7,0,23.3,0,35
		c0,3.1-1.5,4.5-4.6,4.5c-3.4,0-4.2-2-4.2-4.9C931.6,455.8,931.6,449.9,931.6,444.1z"/>
	<path class="st15" d="M910.8,389c0-5.8,0-11.7,0-17.5c0-2.9,1.1-4.8,4.4-4.7c3.2,0,4.5,1.6,4.5,4.6c0,11.5,0,23,0,34.5
		c0,3.3-1.4,4.9-4.8,4.9c-3.6,0.1-4.1-2-4.1-4.8C910.8,400.3,910.8,394.7,910.8,389C910.8,389,910.8,389,910.8,389z"/>
	<path class="st9" d="M931.6,388.5c0-5.5,0-10.9,0-16.4c0-3,0.6-5.3,4.3-5.3c3.5-0.1,4.6,1.9,4.6,5c0,11.3,0,22.6,0,33.8
		c0,3.1-1,5.1-4.6,5.1c-3.7,0-4.3-2.3-4.3-5.3C931.6,399.8,931.6,394.1,931.6,388.5z"/>
	<path class="st9" d="M899.3,494.8c0,5.7,0,11.3,0,17c0,3-1.2,4.7-4.4,4.7c-3.2,0-4.5-1.6-4.5-4.6c0-11.6,0-23.3,0-34.9
		c0-3.1,1.6-4.5,4.7-4.4c3,0.1,4.2,1.6,4.2,4.4C899.3,482.9,899.3,488.9,899.3,494.8C899.3,494.8,899.3,494.8,899.3,494.8z"/>
	<path class="st9" d="M919.7,494.4c0,5.8,0,11.6,0,17.4c0,3-1.2,4.6-4.5,4.6c-3.3,0-4.4-1.8-4.4-4.7c0-11.5,0-22.9,0-34.4
		c0-2.8,0.8-4.9,4.2-4.9c3.5,0,4.7,1.8,4.7,4.9C919.7,483.1,919.7,488.7,919.7,494.4z"/>
	<path class="st9" d="M931.6,494c0-5.6,0-11.3,0-16.9c0-3.1,1.3-4.6,4.5-4.6c2.9,0,4.3,1.5,4.3,4.3c0,11.8,0,23.6,0,35.4
		c0,2.8-1.3,4.3-4.3,4.3c-3.2,0-4.5-1.4-4.5-4.5C931.6,506,931.6,500,931.6,494z"/>
	<path class="st9" d="M890.4,444.3c0-5.7,0-11.3,0-17c0-3,1.1-4.7,4.4-4.7c3.2,0,4.5,1.6,4.5,4.6c0,11.5,0,23,0,34.5
		c0,3-1.1,4.7-4.4,4.7c-3.2,0-4.5-1.6-4.5-4.6C890.4,456,890.4,450.2,890.4,444.3z"/>
	<path class="st9" d="M940.4,550.1c0,5.8,0,11.6,0,17.5c0,3.1-1.4,4.6-4.5,4.6c-3.2,0-4.3-1.7-4.3-4.7c0.1-11.5,0-23,0-34.4
		c0-3,1.2-4.6,4.4-4.6c3.3,0,4.4,1.9,4.4,4.8C940.4,538.8,940.4,544.4,940.4,550.1z"/>
	<path class="st9" d="M890.4,388.1c0-5.5,0-11,0-16.4c0-3.3,1.3-5,4.7-4.9c3.3,0.1,4.2,2,4.2,4.9c0,11.5,0,22.9,0,34.4
		c0,2.9-1.2,4.7-4.4,4.7c-3.2,0-4.5-1.7-4.4-4.7C890.4,400.1,890.4,394.1,890.4,388.1C890.4,388.1,890.4,388.1,890.4,388.1z"/>
	<path class="st9" d="M919.7,444.3c0,5.8,0,11.7,0,17.5c0,3-1.3,4.6-4.5,4.7c-3.3,0-4.4-1.8-4.4-4.7c0-11.5,0-23,0-34.5
		c0-2.9,1.2-4.7,4.5-4.7c3.2,0,4.4,1.8,4.4,4.7C919.7,433,919.7,438.7,919.7,444.3z"/>
	<path class="st9" d="M899.3,551c0,5.5,0,11,0,16.5c0,3-1.3,4.7-4.5,4.7c-3.2,0-4.5-1.6-4.5-4.6c0-11.5,0-23,0-34.5
		c0-3,1.2-4.7,4.4-4.7c3.3,0,4.5,1.7,4.5,4.7C899.3,539,899.3,545,899.3,551z"/>
	<path class="st15" d="M919.7,550.4c0,5.7,0,11.3,0,17c0,3-1.1,4.7-4.4,4.8c-3.2,0.1-4.5-1.6-4.5-4.6c0-11.5,0-22.9,0-34.4
		c0-2.8,1-4.8,4.3-4.8c3.6,0,4.6,2,4.6,5.1C919.7,539.1,919.7,544.8,919.7,550.4z"/>
	<path class="st16" d="M871.4,597.4c-5,0.3-7.3-2-7-7c0.1-1.8,0-3.6,0-5.4c0.1-6.4,0.6-6.9,7-7.3
		C871.4,584.2,871.4,590.8,871.4,597.4z"/>
	<path class="st17" d="M871.5,402.5c-6.9-0.2-7.4-0.7-7.2-7.3c0.1-1.8,0-3.6,0.1-5.4c0.2-5.6,1.3-6.4,7.1-5.2
		C871.5,390.5,871.5,396.5,871.5,402.5z"/>
	<path class="st16" d="M871.3,564.3c-6.3-0.2-6.8-0.8-7-6.9c0-1.7,0-3.3,0-5c0.1-6,0.8-6.6,7.1-6.9
		C871.4,551.8,871.4,558.1,871.3,564.3z"/>
	<path class="st16" d="M871.4,499.4c-6.2-0.1-6.9-0.7-7-6.8c0-1.7,0-3.3,0-5c0.1-6,0.8-6.6,7-7C871.4,486.9,871.4,493.1,871.4,499.4
		z"/>
	<path class="st16" d="M871.5,466.5c-5.8,1.1-6.8,0.4-7-5.3c-0.1-1.8-0.1-3.6,0-5.4c0.1-6.4,0.7-7,7.1-7.2
		C871.5,454.5,871.5,460.5,871.5,466.5z"/>
	<path class="st16" d="M871.4,434.4c-6.1,0-6.8-0.7-6.9-6.7c0-1.5,0-3,0-4.4c0.1-6,0.8-6.6,7-6.7
		C871.4,422.5,871.4,428.4,871.4,434.4z"/>
	<path class="st17" d="M871.4,360.4c-6.1,0-6.8-0.7-6.9-6.7c0-1.5,0-3,0-4.4c0.1-6,0.8-6.6,7-6.7
		C871.4,348.5,871.4,354.5,871.4,360.4z"/>
	<path class="st18" d="M871.5,531.5c-6.8-0.1-7.1-0.6-7.1-9.3c0-8.1,0.4-8.6,7.1-8.7C871.5,519.5,871.5,525.5,871.5,531.5z"/>
	<path class="st9" d="M253.4,516.6c0,1.7,0,3.3,0,5c-0.1,6-3.3,8.2-9,6.4c-2.1-0.7-2.8-2.2-2.8-4.2c0-5,0-10,0-14.9
		c0-4.4,3.1-4.3,6.2-4.4c3.2-0.1,5.6,0.7,5.5,4.6C253.3,511.7,253.4,514.1,253.4,516.6C253.4,516.6,253.4,516.6,253.4,516.6z"/>
	<path class="st9" d="M212.4,516.6c0,1.7,0,3.3,0,5c-0.1,6-3.3,8.2-9,6.4c-2.1-0.7-2.8-2.2-2.8-4.2c0-5,0-10,0-14.9
		c0-4.4,3.1-4.3,6.2-4.4c3.3-0.1,5.6,0.7,5.5,4.6C212.3,511.7,212.4,514.1,212.4,516.6C212.4,516.6,212.4,516.6,212.4,516.6z"/>
	<path class="st9" d="M262.3,516.3c0-1.7,0-3.3,0-5c0.1-6.2,2.9-8.2,8.9-6.5c2,0.5,2.8,1.8,2.8,3.6c0.1,5.3,0.1,10.6,0,15.9
		c-0.1,4.1-3.2,4-6.1,4c-2.8,0-5.5-0.2-5.6-4C262.4,521.6,262.4,518.9,262.3,516.3C262.4,516.3,262.4,516.3,262.3,516.3z"/>
	<path class="st10" d="M212.4,550c0,1.3-0.1,2.7,0,4c0.3,4.2-0.9,6.5-5.8,6.6c-5.1,0.1-6.4-2.3-6.1-6.7c0.2-2.8,0.2-5.7,0-8.5
		c-0.3-4.4,1.8-5.8,6-5.8c4.3,0,6.2,1.7,5.8,5.9C212.3,547,212.4,548.5,212.4,550z"/>
	<path class="st9" d="M232.8,549.9c0,1.3-0.1,2.7,0,4c0.3,4.4-1.1,6.7-6.1,6.7c-5.3,0-6.1-2.7-5.9-6.9c0.1-2.6,0.2-5.3,0-8
		c-0.3-4.4,1.5-6.2,6.1-6.2c4.7,0,6.3,2.1,5.9,6.4C232.7,547.3,232.8,548.6,232.8,549.9z"/>
	<path class="st9" d="M274.2,550c0,1.3,0,2.6,0,4c-0.1,6.1-3.1,8.1-9,6.4c-2.2-0.6-2.7-2.2-2.7-4.1c-0.1-3.6,0.1-7.3-0.1-10.9
		c-0.3-4.5,2-5.6,6-5.6c3.9,0,6,1.2,5.8,5.4C274.1,546.6,274.1,548.3,274.2,550C274.2,550,274.2,550,274.2,550z"/>
	<path class="st9" d="M241.6,482.9c0-1.3,0.1-2.7,0-4c-0.3-4.1,0.8-6.5,5.7-6.5c5,0,6.5,2.2,6.2,6.7c-0.2,2.3,0,4.7,0,7
		c-0.1,6.2-3.4,8.5-9.4,6.7c-1.8-0.5-2.3-1.7-2.4-3.3C241.6,487.2,241.7,485,241.6,482.9C241.6,482.9,241.6,482.9,241.6,482.9z"/>
	<path class="st9" d="M212.4,482.5c0,1.3-0.1,2.7,0,4c0.3,4.2-1.1,6.4-5.9,6.4c-4.6,0-6.3-1.9-6-6.3c0.2-2.5,0-5,0-7.4
		c0.1-6.3,1.5-7.4,7.8-6.7c2.7,0.3,3.9,1.6,3.9,4.1C212.4,478.6,212.3,480.5,212.4,482.5C212.3,482.5,212.4,482.5,212.4,482.5z"/>
	<path class="st9" d="M253.4,450.9c0,1.2-0.1,2.3,0,3.5c0.3,4.2-1,6.4-5.8,6.4c-4.6,0-6.4-1.8-6.1-6.2c0.2-2.5,0-5,0-7.5
		c0.1-6.3,1.2-7.2,7.3-6.8c3.1,0.2,4.5,1.6,4.5,4.6C253.4,446.9,253.4,448.9,253.4,450.9C253.4,450.9,253.4,450.9,253.4,450.9z"/>
	<path class="st9" d="M262.3,450.4c0-1.3,0.1-2.7,0-4c-0.4-4.4,1.4-6.2,6-6.3c4.8,0,6.1,2.2,5.9,6.4c-0.1,2.5,0,5,0,7.4
		c-0.1,6.1-3.8,8.5-9.5,6.3c-1.7-0.7-2.2-1.9-2.2-3.5c-0.1-2.1,0-4.3,0-6.5C262.4,450.4,262.4,450.4,262.3,450.4z"/>
	<path class="st9" d="M200.6,450.2c0-1.2,0.1-2.3,0-3.5c-0.3-4.2,0.9-6.4,5.8-6.5c5-0.1,6.4,2.2,6.1,6.7c-0.2,2.3-0.1,4.6,0,7
		c0.2,4.1-0.5,7.2-5.8,6.9c-5.3-0.3-6-0.8-6.1-7.1C200.5,452.5,200.6,451.3,200.6,450.2z"/>
	<path class="st9" d="M232.8,482.8c0,1.2-0.1,2.3,0,3.5c0.4,4.5-1.3,6.6-6.2,6.7c-4.9,0-6-2.4-5.8-6.5c0.1-2.5,0.1-5,0-7.5
		c-0.1-4,0.7-6.6,5.7-6.6c4.8,0,6.7,1.8,6.3,6.5C232.7,480.1,232.8,481.4,232.8,482.8z"/>
	<path class="st19" d="M1266.8,546.4c0,1.7-0.1,3.3,0,5c0.2,3-1.7,4.1-4.2,4.5c-2.8,0.4-4.5-1-4.9-3.7c-0.6-3.9-0.7-7.9,0.1-11.9
		c0.5-2.7,2.4-3.9,5.1-3.5c2.6,0.4,4.2,1.6,4,4.6C1266.6,543.1,1266.7,544.8,1266.8,546.4z"/>
	<path class="st19" d="M1236.5,546.4c0,1.7,0,3.3,0,5c0,2.5-0.9,4.2-3.7,4.2c-2.8,0-5.1-0.8-5.2-4c-0.2-3.5-0.2-6.9,0-10.4
		c0.1-2.6,1.5-4.4,4.4-4.3c2.8,0.1,4.8,1.3,4.7,4.5c0,1.7,0,3.3,0,5C1236.6,546.4,1236.6,546.4,1236.5,546.4z"/>
	<path class="st19" d="M1266.7,521.9c0,7.4-1,9-5.6,8.6c-1.9-0.2-3.2-0.9-3.6-2.8c-0.9-3.8-0.6-7.6,0.1-11.3
		c0.7-3.3,3.7-2.1,5.8-2.2c2.2-0.2,3.4,1,3.3,3.3C1266.7,518.9,1266.7,520.4,1266.7,521.9z"/>
	<path class="st19" d="M1267,570.6c-0.4,3.7,1,8.6-5.5,8.3c-0.5,0-1.1,0-1.5-0.2c-4.7-2.5-2.3-7-2.9-10.6c-0.4-2.4-0.1-4.6,2.9-5.4
		C1265.2,561.3,1267.2,563.6,1267,570.6z"/>
	<path class="st19" d="M1266.9,498.6c0.3,8.4-1.7,8.6-6.3,8.4c-1.8-0.1-3.2-1.1-3.3-3.1c-0.1-3.3-0.3-6.6-0.1-9.9
		c0.2-3.1,2.9-3.3,5.2-3.4c2.3-0.1,4.3,0.7,4.5,3.5C1266.9,495.6,1266.9,497.1,1266.9,498.6z"/>
	<path class="st20" d="M1236.7,498.8c-0.4,3.6,1.3,7.9-4.3,8.4c-0.7,0.1-1.4,0.2-2,0c-5.5-2.8-2.5-7.9-2.9-12
		c-0.3-3.1,1.9-4.4,4.9-4.3C1238.7,491.2,1235.7,496.2,1236.7,498.8z"/>
	<path class="st19" d="M1236,530.5c-2.7-0.5-6.4,1.2-7.8-1.7c-1.9-3.9-1.7-8.7-0.2-12.6c1.4-3.6,5.4-2,8.4-1.7
		C1237.2,519.9,1237.8,525.2,1236,530.5z"/>
	<path class="st21" d="M1246.8,513.6c1.1,0.3,2.3,0.6,3.4,0.9c1.7,4.6,1,9.5,0.5,14.1c-0.4,4.1-4.5,2-7,2.4
		c-2.7,0.5-2.9-1.3-2.8-3.3c0.1-2.3,0-4.6,0-6.9C1241,514.4,1241,514.4,1246.8,513.6z"/>
	<path class="st22" d="M1250.5,570.5c-0.1,4.2,0.7,8.7-5,8.2c-7.6-0.7-3.4-6.9-4.2-10.6c-0.7-3.2,0.7-5.6,4.5-5.5
		C1252,562.8,1250.1,567.6,1250.5,570.5z"/>
	<path class="st23" d="M1220.3,546.1c0,2,0.1,4,0,6c-0.1,2.1-1.3,3.4-3.5,3.4c-2.3,0-3.3-1.5-3.4-3.5c-0.1-3.6-0.1-7.3-0.1-10.9
		c0-2.3,1.1-3.9,3.6-3.9c2.6,0,3.3,1.8,3.4,4C1220.4,542.8,1220.3,544.4,1220.3,546.1C1220.3,546.1,1220.3,546.1,1220.3,546.1z"/>
	<path class="st24" d="M1220.7,499c-0.8,3.1,1.2,8.2-4.1,7.9c-4.6-0.2-3.7-4.9-3.4-7.9c0.3-3-1.6-8.1,3.9-7.9
		C1222.1,491.4,1219.5,496.3,1220.7,499z"/>
	<path class="st25" d="M1220.5,570.8c-0.9,2.8,1.6,7.7-3.8,7.5c-5.1-0.1-3.3-4.9-3.4-7.8c0-3-1.5-7.7,3.6-7.6
		C1222,563.1,1219.7,567.9,1220.5,570.8z"/>
	<path class="st26" d="M1246.8,513.6c-1.9,0.8-4.8,0.2-5.2,3c-0.6,4.1-1.2,8.3,0.6,12.2c0.9,2,3.5,1.5,5.4,1.2
		c2-0.3,2.7-1.7,2.7-3.5c0-4-0.1-7.9-0.1-11.9c1.8,3.8,1.2,7.8,1.1,11.7c-0.1,3.7-2.2,5.2-5.8,5.2c-3.6,0-5-2-5-5.3c0-2,0-4-0.1-5.9
		C1240.3,515.7,1242,513.2,1246.8,513.6z"/>
	<path class="st26" d="M1236,530.5c1.3-5.3,0.7-10.7,0.4-16C1237.9,519.9,1238.4,525.2,1236,530.5z"/>
	<path class="st17" d="M1001.4,491.4c0,7.2-3.6,9.8-10.6,7.8c-2-0.6-3.1-1.9-3.2-3.9c-0.1-1.7-0.2-3.3-0.1-5c0-6.8,1.2-7.9,7.9-7.5
		C1000.3,483.1,1001.4,484.7,1001.4,491.4z"/>
	<path class="st17" d="M987.3,467.8c-0.1-6.7,0.8-7.9,6.3-8.1c5.9-0.2,7.7,1.5,7.8,7.5c0.1,8.1-0.7,9.1-6.7,9.2
		C988.2,476.5,987.5,475.6,987.3,467.8z"/>
	<path class="st16" d="M1001.3,445.9c0.1,6-1.4,7.5-7.1,7.6c-5.4,0-6.8-1.5-6.9-7.2c-0.1-8.2,0.8-9.5,6.9-9.5
		C1000.2,436.7,1001.2,438.1,1001.3,445.9z"/>
	<path class="st17" d="M1001.4,537.6c0,6.8-1,8.2-6.4,8.2c-6.3,0.1-7.9-1.4-7.8-7.4c0-7.8,1-8.9,7.3-8.9
		C1000.5,529.6,1001.3,530.6,1001.4,537.6z"/>
	<path class="st16" d="M1001.3,375.6c0,7-0.9,8-7,8c-6.5,0-7-1.1-7.2-10.4c-0.2-5.6,3.4-5.7,7.2-5.6
		C1000.2,367.5,1001.4,368.9,1001.3,375.6z"/>
	<path class="st16" d="M987.3,398.6c0-6.8,1.1-8,7.1-8c5.9,0,6.9,1.2,6.9,8.1c0,7-0.9,7.9-7.1,7.9
		C988.2,406.6,987.3,405.6,987.3,398.6z"/>
	<path class="st17" d="M1001.4,422.1c0,6.7-1.2,8.2-6.8,8.2c-5.8,0-7.2-1.5-7.2-8c0-6.9,0.9-8,6.9-8
		C1000.4,414.3,1001.3,415.2,1001.4,422.1z"/>
	<path class="st27" d="M1149.4,462.2c-6.1,0.2-6.7-0.3-6.8-6.1c-0.1-7.7,0-15.5,0-23.2c0-1.8,0.3-3.6,1.1-5.3
		c4.4-0.4,5.9,1.8,5.8,5.9C1149.4,443.1,1149.4,452.7,1149.4,462.2z"/>
	<path class="st12" d="M1149.3,589.2c-4.6,1-6.9-0.7-6.8-5.6c0.1-7.9,0-15.8,0.1-23.7c0-1.8,0.3-3.6,1.2-5.2c4.4-0.3,5.8,2,5.7,6.1
		C1149.4,570.3,1149.4,579.7,1149.3,589.2z"/>
	<path class="st27" d="M1143.6,506.4c-2.2-8.3-0.6-16.8-1-25.1c-0.2-3.3-0.5-6.6,1-9.8c4.2-0.3,6,1.6,5.9,5.8
		c-0.1,7.8-0.1,15.5,0,23.3C1149.6,504.9,1147.8,506.8,1143.6,506.4z"/>
	<path class="st27" d="M1149.4,545.4c-6.2,0.2-6.8-0.3-6.9-6.1c-0.1-7.4,0-14.9,0-22.3c0-2.4,0.1-4.7,2.1-6.4
		c3.8,0.3,4.9,2.6,4.9,6.1C1149.4,526.2,1149.4,535.8,1149.4,545.4z"/>
</g>
</svg>
