<?xml version="1.0" encoding="utf-8"?>
<!-- Generator: Adobe Illustrator 19.0.0, SVG Export Plug-In . SVG Version: 6.00 Build 0)  -->
<svg version="1.1" id="Слой_1" xmlns="http://www.w3.org/2000/svg" xmlns:xlink="http://www.w3.org/1999/xlink" x="0px" y="0px"
	 viewBox="0 0 1000 1000" style="enable-background:new 0 0 1000 1000;" xml:space="preserve">
<style type="text/css">
	.st0{fill:#BBDFEF;}
</style>
<path id="XMLID_5_" class="st0" d="M508.9,974c-19.7,0-38.4-4.5-52.7-12.7L135.6,776.2c-29.5-17.1-52.7-57.1-52.7-91.2V314.6
	c0-34.1,23.1-74.1,52.7-91.2L456.3,38.3c28.5-16.4,76.8-16.4,105.3,0l320.7,185.1c29.5,17.1,52.6,57.1,52.6,91.2v370.3
	c0,34.1-23.1,74.1-52.6,91.2L561.6,961.3C547.3,969.5,528.6,974,508.9,974z M508.9,55.1c-14.4,0-28.2,3.2-37.9,8.8L150.4,249
	c-20.2,11.7-37.9,42.3-37.9,65.6v370.3c0,23.3,17.7,54,37.9,65.6l320.7,185.1c19.4,11.2,56.4,11.2,75.8,0l320.7-185.1
	c20.2-11.6,37.9-42.3,37.9-65.6V314.6c0-23.3-17.7-54-37.9-65.7L546.8,63.9C537.1,58.3,523.3,55.1,508.9,55.1z"/>
<g id="XMLID_2_">
	<g id="XMLID_3_">
		<path id="XMLID_13_" class="st0" d="M433,394.3l-6.2,3c-7.7,3.7-16.7,4.3-24.7,1.4l-10.3-3.6c-0.6-0.4-1.2-0.7-1.8-0.9l-63.6-21.8
			c-4.8-1.6-10,0.9-11.6,5.7l-53.4,155.5c-0.8,2.3-0.6,4.9,0.4,7c1,2.1,2.9,3.8,5.3,4.7l63.5,21.8c1,0.3,2,0.5,2.9,0.5
			c3.8,0,7.4-2.4,8.7-6.2l50.3-146.4l3.4,1.2c12.7,4.5,26.8,3.6,39-2.2l6.2-3c7.6-3.7,16.5-4.3,24.5-1.5l116.8,40.2
			c-1.2,4.9-3.6,10.6-8.1,13.8c-5,3.4-12.4,3.4-22.1,0.1l-52.1-17.8c-2.4-0.8-5.1-0.6-7.3,0.6c-2.2,1.2-3.8,3.3-4.6,5.8
			c-0.1,0.3-7.3,27.2-30.3,39.6c-14.5,7.8-32.5,8.1-53.7,0.9c-4.8-1.6-10,0.9-11.6,5.7c-1.6,4.8,0.9,10,5.7,11.6
			c12.2,4.2,23.6,6.3,34.2,6.3c12.4,0,23.7-2.7,34-8.3c20.6-11,31.2-30.4,36.1-41.9l43.4,14.9c15.5,5.4,28.5,4.6,38.5-2.4
			c16.1-11.1,16.9-33.7,17-34.7c0.1-4.1-2.4-7.6-6.2-8.9l-124-42.7C459,387.6,444.9,388.5,433,394.3z M327.8,546.6l-46.2-15.8
			l47.3-138l46.2,15.8L327.8,546.6z"/>
		<path id="XMLID_4_" class="st0" d="M676.2,557.1l-21.8,20.1c-19.7,18.1-42,33.4-66.1,45.2l-115.6,56.5c-5.1,2.5-11.2,0.4-13.8-4.8
			c-2.5-5.1-0.4-11.2,4.8-13.8l1.4-0.7l0,0l63.2-30.9c4.6-2.2,6.5-7.7,4.3-12.3s-7.7-6.5-12.3-4.3L457.2,643l0,0l-31.8,15.6
			c-5.1,2.5-11.2,0.4-13.8-4.8c-1.2-2.4-1.4-5.3-0.5-7.8c0.9-2.6,2.7-4.7,5.2-5.9l24-11.7l0,0l68.7-33.6c4.6-2.2,6.5-7.7,4.3-12.3
			c-2.2-4.6-7.7-6.5-12.3-4.3l-68.8,33.7l0,0l-2.6,1.3l-32.8,16.1c-2.4,1.2-5.3,1.4-7.8,0.5c-2.6-0.9-4.7-2.7-5.9-5.2
			c-2.5-5.1-0.4-11.2,4.8-13.8l11.3-5.6l0,0l23.2-11.3l6.5-3.1l0,0l53.3-26.1c4.6-2.2,6.5-7.7,4.3-12.3s-7.7-6.5-12.3-4.3
			l-57.7,28.3L391.1,589c-5.1,2.4-11.2,0.4-13.8-4.8c-1.2-2.4-1.4-5.3-0.5-7.8c0.9-2.6,2.7-4.7,5.2-5.9l44.1-21.6
			c4.6-2.2,6.5-7.7,4.3-12.3c-2.2-4.6-7.7-6.5-12.3-4.3L374,554c-6.9,3.3-12.1,9.2-14.5,16.4c-2.4,7.2-2,15,1.3,21.9
			c2.1,4.3,5.2,7.8,8.8,10.4c-6.4,8.4-8,20-3,30.1c3.3,6.9,9.2,12.1,16.4,14.5c3,1,6.1,1.5,9.1,1.5c-0.1,4.6,0.8,9.1,2.9,13.3
			c5,10.1,15.2,16,25.7,16c4.3,0,8.5-0.9,12.6-2.9l6.5-3.1c0.3,3.4,1.2,6.8,2.7,10c5,10.1,15.2,16,25.7,16c4.3,0,8.5-0.9,12.6-2.9
			l115.6-56.5c25.7-12.6,49.4-28.8,70.5-48.1l25.8-23.8l59.1-29c4.6-2.2,6.5-7.7,4.3-12.3l-72.3-147.4c-1.1-2.2-2.9-3.8-5.3-4.7
			c-2.3-0.8-4.9-0.6-7,0.4l-60.4,29.5c-4.6,2.2-6.5,7.7-4.3,12.3L676.2,557.1z M671.4,394.4l64.1,131.2L691.6,547l-64.1-131.2
			L671.4,394.4z"/>
	</g>
</g>
</svg>
