<?xml version="1.0" encoding="utf-8"?>
<!-- Generator: Adobe Illustrator 19.0.0, SVG Export Plug-In . SVG Version: 6.00 Build 0)  -->
<svg version="1.1" id="Слой_1" xmlns="http://www.w3.org/2000/svg" xmlns:xlink="http://www.w3.org/1999/xlink" x="0px" y="0px"
	 viewBox="-5 247 600 300" style="enable-background:new -5 247 600 300;" xml:space="preserve">
<style type="text/css">
	.st0{fill:#FFFFFF;}
</style>
<g>
	<path class="st0" d="M46.5,407.9c49.5,0.3,99-0.3,148.4-2c52.1-1.8,104.2-4.5,156.2-8.7c42.2-3.4,84.2-7.6,126.2-13.4
		c14.2-1.9,28.3-4.2,42.5-6.3c1.1-0.2,2.2-0.8,3.6,0.3c-1,1.8-3,1.6-4.6,1.8c-34,5.4-68.2,9.9-102.5,13.5
		c-43.1,4.5-86.2,8-129.5,10.5c-48.6,2.8-97.2,4.6-145.8,5.6c-31.5,0.6-63,0.6-94.5,0.7C46.5,409.2,46.5,408.5,46.5,407.9z"/>
</g>
</svg>
