<?xml version="1.0" encoding="utf-8"?>
<!-- Generator: Adobe Illustrator 19.0.0, SVG Export Plug-In . SVG Version: 6.00 Build 0)  -->
<svg version="1.1" id="Слой_1" xmlns="http://www.w3.org/2000/svg" xmlns:xlink="http://www.w3.org/1999/xlink" x="0px" y="0px"
	 viewBox="0 0 1000 1000" style="enable-background:new 0 0 1000 1000;" xml:space="preserve">
<style type="text/css">
	.st0{fill:#BBDFEF;}
</style>
<path id="XMLID_5_" class="st0" d="M500,974c-19.7,0-38.4-4.5-52.7-12.7L126.7,776.2C97.1,759.1,74,719,74,684.9V314.6
	c0-34.1,23.1-74.1,52.7-91.2L447.3,38.3c28.5-16.4,76.8-16.4,105.3,0l320.7,185.1c29.5,17.1,52.6,57.1,52.6,91.2v370.3
	c0,34.1-23.1,74.1-52.6,91.2L552.6,961.3C538.4,969.5,519.7,974,500,974z M500,55.1c-14.4,0-28.2,3.2-37.9,8.8L141.4,249
	c-20.2,11.7-37.9,42.3-37.9,65.6v370.3c0,23.3,17.7,54,37.9,65.6l320.7,185.1c19.4,11.2,56.4,11.2,75.8,0l320.7-185.1
	c20.2-11.6,37.9-42.3,37.9-65.6V314.6c0-23.3-17.7-54-37.9-65.7L537.9,63.9C528.2,58.3,514.4,55.1,500,55.1z"/>
<g id="XMLID_31_">
	<g id="XMLID_32_">
		<path id="XMLID_33_" class="st0" d="M437.1,644.4c-23,0-41.8,18.7-41.8,41.8c0,23,18.7,41.8,41.8,41.8c23,0,41.8-18.7,41.8-41.8
			C478.9,663.2,460.1,644.4,437.1,644.4z M437.1,704.7c-10.2,0-18.5-8.3-18.5-18.5c0-10.2,8.3-18.5,18.5-18.5s18.5,8.3,18.5,18.5
			C455.5,696.4,447.3,704.7,437.1,704.7z"/>
	</g>
</g>
<g id="XMLID_26_">
	<g id="XMLID_27_">
		<path id="XMLID_28_" class="st0" d="M583.7,644.4c-23,0-41.8,18.7-41.8,41.8c0,23,18.7,41.8,41.8,41.8s41.8-18.7,41.8-41.8
			C625.5,663.2,606.7,644.4,583.7,644.4z M583.7,704.7c-10.2,0-18.5-8.3-18.5-18.5c0-10.2,8.3-18.5,18.5-18.5
			c10.2,0,18.5,8.3,18.5,18.5C602.1,696.4,593.9,704.7,583.7,704.7z"/>
	</g>
</g>
<g id="XMLID_23_">
	<g id="XMLID_24_">
		<path id="XMLID_25_" class="st0" d="M594,424.4H426.8c-6.4,0-11.7,5.2-11.7,11.7s5.2,11.7,11.7,11.7H594c6.4,0,11.7-5.2,11.7-11.7
			C605.6,429.6,600.4,424.4,594,424.4z"/>
	</g>
</g>
<g id="XMLID_10_">
	<g id="XMLID_21_">
		<path id="XMLID_22_" class="st0" d="M584.9,485h-149c-6.4,0-11.7,5.2-11.7,11.7c0,6.4,5.2,11.7,11.7,11.7h149
			c6.4,0,11.7-5.2,11.7-11.7C596.5,490.2,591.3,485,584.9,485z"/>
	</g>
</g>
<g id="XMLID_2_">
	<g id="XMLID_3_">
		<path id="XMLID_4_" class="st0" d="M707.8,372.4c-4.4-5.5-11-8.6-18.1-8.6H326.2l-7.3-35.6c-1.5-7.4-6.6-13.7-13.6-16.7
			l-51.2-22.2c-5.9-2.6-12.8,0.1-15.3,6.1c-2.6,5.9,0.1,12.8,6.1,15.3l51.2,22.2l56.5,274.1c2.2,10.8,11.8,18.6,22.9,18.6h279.5
			c6.4,0,11.7-5.2,11.7-11.7c0-6.4-5.2-11.7-11.7-11.7H375.4l-6.9-33.3h288.6c11,0,20.6-7.8,22.9-18.6l32.6-158.4
			C714,384.9,712.2,377.8,707.8,372.4z M657.1,545.5H363.7l-32.6-158.4l358.6,0L657.1,545.5z"/>
	</g>
</g>
</svg>
