<?xml version="1.0" encoding="utf-8"?>
<!-- Generator: Adobe Illustrator 19.0.0, SVG Export Plug-In . SVG Version: 6.00 Build 0)  -->
<svg version="1.1" id="Layer_1" xmlns="http://www.w3.org/2000/svg" xmlns:xlink="http://www.w3.org/1999/xlink" x="0px" y="0px"
	 viewBox="0 0 1000 1000" style="enable-background:new 0 0 1000 1000;" xml:space="preserve">
<style type="text/css">
	.st0{fill:#BCE7F8;}
</style>
<path class="st0" d="M506,973.5c-19.7,0-38.4-4.5-52.7-12.7L132.7,775.6C103.1,758.5,80,718.5,80,684.4V314.1
	c0-34.1,23.1-74.1,52.7-91.2L453.3,37.7c28.5-16.4,76.8-16.4,105.3,0l320.7,185.1C908.9,240,932,280,932,314.1v370.3
	c0,34.1-23.1,74.1-52.6,91.2L558.7,960.8C544.4,969,525.7,973.5,506,973.5z M506,54.5c-14.4,0-28.2,3.2-37.9,8.8L147.4,248.5
	c-20.2,11.7-37.9,42.3-37.9,65.6v370.3c0,23.3,17.7,54,37.9,65.6l320.7,185.1c19.4,11.2,56.4,11.2,75.8,0L864.6,750
	c20.2-11.6,37.9-42.3,37.9-65.6V314.1c0-23.3-17.7-54-37.9-65.7L543.9,63.3C534.2,57.7,520.4,54.5,506,54.5z"/>
<g>
	<g>
		<path class="st0" d="M664.4,510H502.5V348.1c0-6.5-5.2-11.8-11.8-11.8c-102.2,0-185.4,83.2-185.4,185.4s83.2,185.4,185.4,185.4
			s185.4-83.2,185.4-185.4C676.2,515.3,670.8,510,664.4,510z M490.8,683.6c-89.2,0-161.9-72.6-161.9-161.9
			c0-85.3,66.3-155.4,150.1-161.4v161.4c0,6.5,5.2,11.8,11.8,11.8h161.4C646.2,617.3,576,683.6,490.8,683.6z"/>
		<path class="st0" d="M720.6,476.6c-0.2-45-16.7-88.3-46.4-122.1c-35.2-39.9-85.8-62.7-139-62.7c-6.5,0-11.8,5.2-11.8,11.8v173.6
			c0,6.5,5.2,11.8,11.8,11.8h173.6l0,0c6.5,0,11.8-5.2,11.8-11.8C720.6,477,720.6,476.8,720.6,476.6z M547,465.5V315.8
			c42,3.1,81.5,22.5,109.5,54.3c23.5,26.6,37.5,60.1,40.1,95.3H547L547,465.5z"/>
	</g>
</g>
</svg>
