<?xml version="1.0" encoding="utf-8"?>
<!-- Generator: Adobe Illustrator 19.0.0, SVG Export Plug-In . SVG Version: 6.00 Build 0)  -->
<svg version="1.1" id="Слой_1" xmlns="http://www.w3.org/2000/svg" xmlns:xlink="http://www.w3.org/1999/xlink" x="0px" y="0px"
	 viewBox="0 0 1000 1000" style="enable-background:new 0 0 1000 1000;" xml:space="preserve">
<style type="text/css">
	.st0{fill:#BBDFEF;}
	.st1{fill:#BBDFEF;stroke:#BBDFEF;stroke-width:5;stroke-miterlimit:10;}
</style>
<path id="XMLID_5_" class="st0" d="M500,974c-19.7,0-38.4-4.5-52.7-12.7L126.7,776.2C97.1,759.1,74,719,74,684.9V314.6
	c0-34.1,23.1-74.1,52.7-91.2L447.3,38.3c28.5-16.4,76.8-16.4,105.3,0l320.7,185.1c29.5,17.1,52.6,57.1,52.6,91.2v370.3
	c0,34.1-23.1,74.1-52.6,91.2L552.6,961.3C538.4,969.5,519.7,974,500,974z M500,55.1c-14.4,0-28.2,3.2-37.9,8.8L141.4,249
	c-20.2,11.7-37.9,42.3-37.9,65.6v370.3c0,23.3,17.7,54,37.9,65.6l320.7,185.1c19.4,11.2,56.4,11.2,75.8,0l320.7-185.1
	c20.2-11.6,37.9-42.3,37.9-65.6V314.6c0-23.3-17.7-54-37.9-65.7L537.9,63.9C528.2,58.3,514.4,55.1,500,55.1z"/>
<path id="XMLID_8_" class="st1" d="M679,453c-4.5-76.8-67.8-138.2-144.1-138.2c-46.3,0-91.2,22.7-119,59.8c-0.6-0.3-1.3-0.6-2-0.9
	c-1.7-0.8-3.4-1.6-5.2-2.3c-1-0.4-1.9-0.7-2.9-1.1c-1.7-0.6-3.5-1.1-5.3-1.6c-1-0.3-2-0.5-2.9-0.8c-1.9-0.4-3.9-0.8-5.9-1.1
	c-0.9-0.1-1.7-0.3-2.6-0.4c-2.8-0.3-5.7-0.5-8.6-0.5c-42.4,0-76.8,34.4-76.8,76.8c0,1.1,0.1,2.2,0.1,3.2v0
	C268.4,465.5,244,506,244,546.6c0,60.4,49.2,109.6,109.6,109.6h209.1c0.9,0,1.8-0.1,2.7-0.1l0.5-0.1l1.1,0.1
	c0.9,0.1,1.7,0.1,2.6,0.1h83.7c56.6,0,102.6-46,102.6-102.6C756,506.7,723.3,464.7,679,453z M653.4,639.1h-83.7c-0.5,0-1,0-1.5-0.1
	l-2.3-0.1l-1.7,0.1c-0.5,0-1,0.1-1.5,0.1H353.6c-51,0-92.5-41.5-92.5-92.6c0-35.4,23.1-72.2,54.9-87.5l4.8-2.3v-5.4
	c0-1.1,0.1-2.2,0.1-3.3l0.1-1.4l-0.1-1.8c-0.1-0.7-0.1-1.4-0.1-2.1c0-32.9,26.8-59.7,59.7-59.7c2.6,0,5.2,0.2,7.8,0.6
	c0.7,0.1,1.3,0.2,2,0.3c2.3,0.4,4.5,0.9,6.7,1.5c0.3,0.1,0.6,0.1,0.9,0.2c2.4,0.7,4.8,1.7,7.1,2.7c0.6,0.3,1.2,0.6,1.8,0.9
	c2,1,4.1,2.1,6,3.4c16.4,10.6,27.4,29.1,27.4,50.1c0,4.7,3.8,8.5,8.5,8.5s8.5-3.8,8.5-8.5c0-23.5-10.6-44.5-27.3-58.6
	c24.5-32,64.8-52.3,104.8-52.3c66.1,0,121,52.4,126.7,118.5c-8.7-0.6-21.8-0.9-34.8,1.1c-4.7,0.7-7.9,5.1-7.2,9.7
	c0.6,4.2,4.3,7.3,8.4,7.3c0.4,0,0.9,0,1.3-0.1c19-2.9,38.8-0.2,40,0c39.7,7.6,69.7,44.2,69.7,85.2
	C738.9,600.7,700.5,639.1,653.4,639.1z"/>
</svg>
